<?xml version="1.0" encoding="utf-8"?>
<!-- Generator: Adobe Illustrator 22.1.0, SVG Export Plug-In . SVG Version: 6.00 Build 0)  -->
<svg version="1.1" id="Capa_1" xmlns="http://www.w3.org/2000/svg" xmlns:xlink="http://www.w3.org/1999/xlink" x="0px" y="0px"
	 viewBox="0 0 201 43" style="enable-background:new 0 0 201 43;" xml:space="preserve">
<style type="text/css">
	.st0{fill:#FFFF00;}
	.st1{fill:#4790F8;}
	.st2{fill:#FCFBFB;}
	.st3{fill:#7A9FFB;}
	.st4{fill:#FBF7F8;}
	.st5{fill:#AE9648;}
	.st6{fill:#346BF0;}
	.st7{fill:#E8ACBD;}
	.st8{fill:#DBD3C5;}
	.st9{fill:#FAB934;}
	.st10{fill:#9C7521;}
	.st11{fill:#926B15;}
	.st12{fill:#FBFA4F;}
	.st13{fill:#FBA851;}
	.st14{fill:#7697FE;}
	.st15{fill:#F9A83A;}
	.st16{fill:#A67C28;}
	.st17{fill:#682483;}
	.st18{fill:#4085EF;}
	.st19{fill:#F4B02D;}
	.st20{fill:#FAA7D9;}
	.st21{fill:#743387;}
	.st22{fill:#F4D054;}
	.st23{fill:#FB9DCE;}
	.st24{fill:#D89F33;}
	.st25{fill:#D695EE;}
	.st26{fill:#5A82FC;}
	.st27{fill:#4769EE;}
	.st28{fill:#3B8DFE;}
	.st29{fill:#7E418C;}
	.st30{fill:#926F22;}
	.st31{fill:#ED9B33;}
	.st32{fill:#CC9325;}
	.st33{fill:#925687;}
	.st34{fill:#7890E5;}
	.st35{fill:#D77492;}
	.st36{fill:#8D9ED0;}
	.st37{fill:#718AEC;}
	.st38{fill:#E9B676;}
	.st39{fill:#FA3A71;}
	.st40{fill:#FD4573;}
	.st41{fill:#FCDA44;}
	.st42{fill:#3B87F9;}
	.st43{fill:#458FFB;}
	.st44{fill:#F55F8B;}
	.st45{fill:#F2B12D;}
	.st46{fill:#FB9ECF;}
	.st47{fill:#FA7EAB;}
	.st48{fill:#F95D8A;}
	.st49{fill:#FE5481;}
	.st50{fill:#F54478;}
	.st51{fill:#FE5281;}
	.st52{fill:#F7CF3B;}
	.st53{fill:#AE3B55;}
	.st54{fill:#FEA4D9;}
	.st55{fill:#DB3F64;}
	.st56{fill:#FA1A57;}
	.st57{fill:#EC5C7A;}
	.st58{fill:#932E44;}
	.st59{fill:#5694F8;}
	.st60{fill:#F74272;}
	.st61{fill:#F74172;}
	.st62{fill:#D99C1F;}
	.st63{fill:#C96781;}
	.st64{fill:#FEBAF0;}
	.st65{fill:#E87794;}
	.st66{fill:#EE7E8F;}
	.st67{fill:#FB3D6B;}
	.st68{fill:#AC3952;}
	.st69{fill:#EE5F82;}
	.st70{fill:#DD6284;}
	.st71{fill:#428BF3;}
	.st72{fill:#F5799F;}
	.st73{fill:#F93F6E;}
	.st74{fill:#F1436D;}
	.st75{fill:#FEB727;}
	.st76{fill:#5494FD;}
	.st77{fill:#F28DBE;}
	.st78{fill:#D7879E;}
	.st79{fill:#C6AE46;}
	.st80{fill:#3871F5;}
	.st81{fill:#296EF1;}
	.st82{fill:#C5AD49;}
	.st83{fill:#C73B57;}
	.st84{fill:#723573;}
	.st85{fill:#DB5071;}
	.st86{fill:#CDC36D;}
	.st87{fill:#9E7320;}
	.st88{fill:#9163B4;}
	.st89{fill:#4C64C9;}
	.st90{fill:#E9873D;}
	.st91{fill:#6990FE;}
	.st92{fill:#AB8534;}
	.st93{fill:#845B8C;}
	.st94{fill:#2565FE;}
	.st95{fill:#8D617C;}
	.st96{fill:#3A4EAB;}
	.st97{fill:#BE2743;}
	.st98{fill:#FD7425;}
	.st99{fill:#9D7F84;}
	.st100{fill:#EC8DAE;}
	.st101{fill:#394CA9;}
	.st102{fill:#3980FE;}
	.st103{fill:#9476A0;}
	.st104{fill:#B07C1B;}
	.st105{fill:#3377F7;}
	.st106{fill:#B9862B;}
	.st107{fill:#F63B6A;}
	.st108{fill:#F93F6C;}
	.st109{fill:#4152AA;}
	.st110{fill:#FAF136;}
	.st111{fill:#F8F541;}
	.st112{fill:#DF9F26;}
	.st113{fill:#407AF8;}
	.st114{fill:#E04368;}
	.st115{fill:#FBF745;}
	.st116{fill:#F876A2;}
	.st117{fill:#FA8AB9;}
	.st118{fill:#FB9BCB;}
	.st119{fill:#70540F;}
	.st120{fill:#A66B16;}
	.st121{fill:#F880AE;}
	.st122{fill:#447BEC;}
	.st123{fill:#BF3B54;}
	.st124{fill:#2B69F8;}
	.st125{fill:#E09421;}
	.st126{fill:#205BD5;}
	.st127{fill:#CC8A23;}
	.st128{fill:#2566F1;}
	.st129{fill:#4C7BFB;}
	.st130{fill:#5087FA;}
	.st131{fill:#DFB548;}
	.st132{fill:#C8A048;}
	.st133{fill:#7FA2FE;}
	.st134{fill:#FD70A1;}
	.st135{fill:#F4487D;}
	.st136{fill:#436EEC;}
	.st137{fill:#FEFD76;}
	.st138{fill:#FBD138;}
	.st139{fill:#CF9B27;}
	.st140{fill:#F6AA30;}
	.st141{fill:#2E5CF7;}
	.st142{fill:#D9900A;}
	.st143{fill:#FEFEDA;}
	.st144{fill:#C28C1F;}
	.st145{fill:#B58622;}
	.st146{fill:#843B96;}
	.st147{fill:#672088;}
	.st148{fill:#B0801E;}
	.st149{fill:#9C741B;}
	.st150{fill:#F99C16;}
	.st151{fill:#FDF660;}
	.st152{fill:#DE95EA;}
	.st153{fill:#BA8F36;}
	.st154{fill:#B38118;}
	.st155{fill:#FBAD19;}
	.st156{fill:#F9A31C;}
	.st157{fill:#FCF898;}
	.st158{fill:#A055CA;}
	.st159{fill:#BE7BE3;}
	.st160{fill:#C99220;}
	.st161{fill:#F5EBA9;}
	.st162{fill:#E2931F;}
	.st163{fill:#FBD647;}
	.st164{fill:#F9CE3D;}
	.st165{fill:#F8CF40;}
	.st166{fill:#E9AD38;}
	.st167{fill:#D3A133;}
	.st168{fill:#FD98CB;}
	.st169{fill:#FE8FC1;}
	.st170{fill:#D99E2F;}
	.st171{fill:#FD78B2;}
	.st172{fill:#D09C35;}
	.st173{fill:#CA9F32;}
	.st174{fill:#C0A440;}
	.st175{fill:#8D61C6;}
	.st176{fill:#8958C5;}
	.st177{fill:#CAC483;}
	.st178{fill:#174EC5;}
	.st179{fill:#C1A23F;}
	.st180{fill:#8F63C0;}
	.st181{fill:#8959C3;}
	.st182{fill:#7C4882;}
	.st183{fill:#B3842D;}
	.st184{fill:#9064A7;}
	.st185{fill:#994FC2;}
	.st186{fill:#D1A737;}
	.st187{fill:#9455B6;}
	.st188{fill:#CC1E45;}
	.st189{fill:#CD8919;}
	.st190{fill:#F27525;}
	.st191{fill:#F4BE30;}
	.st192{fill:#CE3D3A;}
	.st193{fill:#CBB448;}
	.st194{fill:#F5C139;}
	.st195{fill:#F53361;}
	.st196{fill:#D88211;}
	.st197{fill:#DE790D;}
	.st198{fill:#D3710B;}
	.st199{fill:#BD670A;}
	.st200{fill:#F8D146;}
	.st201{fill:#3874FE;}
	.st202{fill:#9749DB;}
	.st203{fill:#FDD24F;}
	.st204{fill:#FEF560;}
	.st205{fill:#FEFE6E;}
	.st206{fill:#FAE24D;}
	.st207{fill:#BA8920;}
	.st208{fill:#DC961F;}
	.st209{fill:#FEFC64;}
	.st210{fill:#F9DD51;}
	.st211{fill:#F5DE8B;}
	.st212{fill:#F4A4F3;}
	.st213{fill:#AE8E46;}
	.st214{fill:#D790F9;}
	.st215{fill:#FEEE5B;}
	.st216{fill:#FEEA5A;}
	.st217{fill:#F9D14E;}
	.st218{fill:#C37DEF;}
	.st219{fill:#B973E6;}
	.st220{fill:#F2E07F;}
	.st221{fill:#D9AC38;}
	.st222{fill:#E3B43C;}
	.st223{fill:#EEDD7C;}
	.st224{fill:#FEF789;}
	.st225{fill:#FED64F;}
	.st226{fill:#FEE155;}
	.st227{fill:#E5B946;}
	.st228{fill:#D99E24;}
	.st229{fill:#DEA324;}
	.st230{fill:#F8C83C;}
	.st231{fill:#F184A2;}
	.st232{fill:#EA8E92;}
	.st233{fill:#C3A23D;}
	.st234{fill:#C0B580;}
	.st235{fill:#CBC988;}
	.st236{fill:#8C47BE;}
	.st237{fill:#C0A340;}
	.st238{fill:#CFC571;}
	.st239{fill:#8954BA;}
	.st240{fill:#8949BD;}
	.st241{fill:#864DBE;}
	.st242{fill:#CCA438;}
	.st243{fill:#BC9843;}
	.st244{fill:#CAA92D;}
	.st245{fill:#F9B630;}
	.st246{fill:#F5BA36;}
	.st247{fill:#F4C039;}
	.st248{fill:#F2A72E;}
	.st249{fill:#E72955;}
	.st250{fill:#E29118;}
	.st251{fill:#F4C037;}
	.st252{fill:#C2A844;}
	.st253{fill:#C8A641;}
	.st254{fill:#F2C345;}
	.st255{fill:#F7C948;}
	.st256{fill:#FCCC40;}
	.st257{fill:#FEF75E;}
	.st258{fill:#F7A7FA;}
	.st259{fill:#DC92FC;}
	.st260{fill:#D088F5;}
	.st261{fill:#FEFA4E;}
	.st262{fill:#E99FFD;}
	.st263{fill:#E59BFB;}
	.st264{fill:#A95DD8;}
	.st265{fill:#B76FE6;}
	.st266{fill:#C57DF0;}
	.st267{fill:#B168E1;}
	.st268{fill:#F1A7FB;}
	.st269{fill:#AD63DD;}
	.st270{fill:#BF78EA;}
	.st271{fill:#F3E07F;}
	.st272{fill:#E5B63E;}
	.st273{fill:#EDBF32;}
	.st274{fill:#AD64DC;}
	.st275{fill:#A052D1;}
	.st276{fill:#A558D3;}
	.st277{fill:#E7CF77;}
	.st278{fill:#9647C6;}
	.st279{fill:#9342D6;}
	.st280{fill:#C9916D;}
	.st281{fill:#EBBB41;}
	.st282{fill:#9B4ECB;}
	.st283{fill:#F2C446;}
	.st284{fill:#F8CB4A;}
	.st285{fill:#E3B53C;}
	.st286{fill:#E9B93F;}
	.st287{fill:#DAAC37;}
	.st288{fill:#DDAF38;}
	.st289{fill:#C8A338;}
	.st290{fill:#C9B771;}
	.st291{fill:#9345BF;}
	.st292{fill:#D4A737;}
	.st293{fill:#CDB776;}
	.st294{fill:#8C41C3;}
	.st295{fill:#C2A13C;}
	.st296{fill:#C5A13A;}
	.st297{fill:#9147C1;}
	.st298{fill:#C79C39;}
	.st299{fill:#C49837;}
	.st300{fill:#EEBE42;}
	.st301{fill:#A152D0;}
	.st302{fill:#E9D17A;}
	.st303{fill:#E1B33B;}
	.st304{fill:#DEAF39;}
	.st305{fill:#D8A734;}
	.st306{fill:#F1A431;}
	.st307{fill:#9541CA;}
	.st308{fill:#E0B13A;}
	.st309{fill:#D2A737;}
	.st310{fill:#CDA537;}
	.st311{fill:#D5A937;}
	.st312{fill:#9749C5;}
	.st313{fill:#DEA935;}
	.st314{fill:#E4D374;}
	.st315{fill:#E4A834;}
	.st316{fill:#E6AA2C;}
	.st317{fill:#F4A830;}
	.st318{fill:#E5A732;}
</style>
<g>
	
		<image style="overflow:visible;opacity:0.14;enable-background:new    ;" width="208" height="47" xlink:href="FD26A089A1F328AA.png"  transform="matrix(1 0 0 1 11 14)">
	</image>
	<g>
		<path class="st0" d="M195.5,43h-161c-3,0-5.5-2.5-5.5-5.5l0,0c0-3,2.5-5.5,5.5-5.5h161c3,0,5.5,2.5,5.5,5.5l0,0
			C201,40.5,198.5,43,195.5,43z"/>
	</g>
</g>
<g>
	<path d="M34.1,30.8V5.4h8.7c1.4,0,2.7,0.1,3.9,0.4C48,6,49.1,6.5,50,7.1s1.6,1.5,2.2,2.5c0.5,1.1,0.8,2.3,0.8,3.9
		c0,1.5-0.3,2.8-0.8,3.9s-1.3,2-2.2,2.7s-2,1.2-3.2,1.6c-1.2,0.3-2.5,0.5-3.8,0.5h-3.2v8.6C39.8,30.8,34.1,30.8,34.1,30.8z
		 M39.9,17.6h2.8c3.1,0,4.7-1.4,4.7-4.1c0-1.3-0.4-2.3-1.2-2.8s-2-0.8-3.6-0.8h-2.7V17.6z"/>
	<path d="M60.4,31.2c-0.9,0-1.7-0.1-2.4-0.4s-1.3-0.7-1.8-1.2s-0.9-1.2-1.2-1.9s-0.4-1.5-0.4-2.3c0-2,0.9-3.6,2.6-4.8
		c1.7-1.1,4.5-1.9,8.3-2.3c-0.1-0.9-0.3-1.5-0.8-2s-1.2-0.8-2.3-0.8c-0.8,0-1.7,0.2-2.5,0.5c-0.8,0.3-1.7,0.7-2.6,1.3l-2.1-3.8
		c1.2-0.8,2.6-1.4,3.9-1.8c1.4-0.5,2.8-0.7,4.3-0.7c2.5,0,4.4,0.7,5.7,2.1c1.3,1.4,2,3.6,2,6.6v11.1h-4.7l-0.4-2h-0.2
		c-0.8,0.7-1.7,1.3-2.6,1.8C62.5,31,61.5,31.2,60.4,31.2z M62.4,26.8c0.6,0,1.2-0.1,1.7-0.4c0.5-0.3,1-0.7,1.5-1.2v-3.4
		c-2,0.3-3.4,0.7-4.2,1.2s-1.2,1.2-1.2,2c0,0.6,0.2,1.1,0.6,1.4C61.2,26.7,61.7,26.8,62.4,26.8z"/>
	<path d="M76.1,30.8V11.4h4.7l0.4,3.4h0.2c0.7-1.3,1.5-2.3,2.5-2.9c1-0.6,2-0.9,3-0.9c0.5,0,1,0,1.3,0.1s0.7,0.2,1,0.3l-0.9,5
		c-0.4-0.1-0.7-0.2-1-0.2C86.9,16,86.5,16,86.1,16c-0.7,0-1.5,0.3-2.3,0.8s-1.4,1.4-2,2.8v11.2H76.1z"/>
	<path d="M99.1,31.2c-1.2,0-2.2-0.2-3.1-0.5c-0.8-0.4-1.5-0.9-2.1-1.5c-0.5-0.6-0.9-1.4-1.2-2.4c-0.2-0.9-0.4-1.9-0.4-3.1v-7.8h-2.7
		v-4.3l3-0.2l0.7-5.1h4.8v5.1h4.6v4.5h-4.6v7.8c0,1.1,0.2,1.9,0.7,2.4s1.1,0.7,1.8,0.7c0.3,0,0.6,0,1-0.1c0.3-0.1,0.6-0.2,0.9-0.3
		l0.9,4.2c-0.5,0.2-1.1,0.3-1.8,0.5C100.8,31.2,100,31.2,99.1,31.2z"/>
	<path d="M108.7,38.3c-0.6,0-1.1,0-1.5-0.1s-0.8-0.2-1.2-0.3l1-4.4c0.2,0.1,0.4,0.1,0.6,0.2c0.2,0.1,0.5,0.1,0.7,0.1
		c1,0,1.7-0.2,2.2-0.7s0.9-1.1,1.2-1.8l0.3-1l-7.4-18.8h5.8l2.8,8.3c0.3,0.9,0.5,1.8,0.8,2.7c0.2,0.9,0.5,1.8,0.7,2.8h0.2
		c0.2-0.9,0.4-1.8,0.6-2.7c0.2-0.9,0.4-1.8,0.7-2.7l2.3-8.3h5.5L117.2,31c-0.5,1.2-1,2.3-1.5,3.2s-1.1,1.7-1.8,2.3
		c-0.7,0.6-1.4,1.1-2.3,1.4C110.9,38.2,109.9,38.3,108.7,38.3z"/>
	<path d="M127.9,31.2c-1,0-1.8-0.3-2.5-1s-1-1.5-1-2.6c0-1,0.3-1.9,1-2.6s1.5-1,2.5-1c1,0,1.8,0.3,2.5,1s1,1.6,1,2.6s-0.3,1.9-1,2.6
		C129.7,30.9,128.9,31.2,127.9,31.2z"/>
	<path d="M141.1,31.2c-0.9,0-1.7-0.1-2.4-0.4s-1.3-0.7-1.8-1.2s-0.9-1.2-1.2-1.9s-0.4-1.5-0.4-2.3c0-2,0.9-3.6,2.6-4.8
		c1.7-1.1,4.5-1.9,8.3-2.3c-0.1-0.9-0.3-1.5-0.8-2s-1.2-0.8-2.3-0.8c-0.8,0-1.7,0.2-2.5,0.5c-0.8,0.3-1.7,0.7-2.6,1.3l-2.1-3.8
		c1.2-0.8,2.6-1.4,3.9-1.8c1.4-0.5,2.8-0.7,4.3-0.7c2.5,0,4.4,0.7,5.7,2.1s2,3.6,2,6.6v11.1h-4.7l-0.4-2h-0.2
		c-0.8,0.7-1.7,1.3-2.6,1.8C143.2,31,142.2,31.2,141.1,31.2z M143.1,26.8c0.6,0,1.2-0.1,1.7-0.4s1-0.7,1.5-1.2v-3.4
		c-2,0.3-3.4,0.7-4.2,1.2s-1.2,1.2-1.2,2c0,0.6,0.2,1.1,0.6,1.4C141.9,26.7,142.4,26.8,143.1,26.8z"/>
	<path d="M156.8,38V11.4h4.7l0.4,1.9h0.2c0.8-0.7,1.6-1.2,2.6-1.7c0.9-0.5,1.9-0.7,2.9-0.7c1.2,0,2.2,0.2,3.2,0.7
		c0.9,0.5,1.7,1.1,2.4,2s1.2,1.9,1.5,3.1c0.4,1.2,0.5,2.6,0.5,4c0,1.7-0.2,3.1-0.7,4.4s-1.1,2.4-1.8,3.3c-0.8,0.9-1.6,1.6-2.6,2
		c-1,0.5-2,0.7-3,0.7c-0.8,0-1.6-0.2-2.4-0.5c-0.8-0.4-1.5-0.9-2.2-1.5l0.2,3.1V38H156.8z M165.6,26.6c1,0,1.8-0.4,2.5-1.3
		s1.1-2.3,1.1-4.3c0-3.5-1.1-5.2-3.4-5.2c-1.1,0-2.2,0.6-3.3,1.8v7.9c0.5,0.5,1,0.8,1.6,1C164.6,26.5,165.1,26.6,165.6,26.6z"/>
	<path d="M179.2,38V11.4h4.7l0.4,1.9h0.2c0.8-0.7,1.6-1.2,2.6-1.7c0.9-0.5,1.9-0.7,2.9-0.7c1.2,0,2.2,0.2,3.2,0.7
		c0.9,0.5,1.7,1.1,2.4,2s1.2,1.9,1.5,3.1c0.4,1.2,0.5,2.6,0.5,4c0,1.7-0.2,3.1-0.7,4.4s-1.1,2.4-1.8,3.3c-0.8,0.9-1.6,1.6-2.6,2
		c-1,0.5-2,0.7-3,0.7c-0.8,0-1.6-0.2-2.4-0.5c-0.8-0.4-1.5-0.9-2.2-1.5l0.2,3.1V38H179.2z M188,26.6c1,0,1.8-0.4,2.5-1.3
		s1.1-2.3,1.1-4.3c0-3.5-1.1-5.2-3.4-5.2c-1.1,0-2.2,0.6-3.3,1.8v7.9c0.5,0.5,1,0.8,1.6,1C187,26.5,187.5,26.6,188,26.6z"/>
</g>
<g>
	<path class="st1" d="M31.9,12.6c0.1,0.1,0.2,0.1,0.3,0.2c0,0.1,0,0.1,0,0.2c-0.1,0.1-0.2,0.1-0.3,0.2c-2.2,0.1-4.3,0.4-6.4,0.8
		c-0.5,0-1.1,0.2-1.6,0.3c-0.7,0-1.3,0.6-2,0c0-0.1,0-0.2,0-0.3c1.6-0.3,3.2-0.9,4.8-1.1c0.5,0,0.9-0.1,1.4-0.1
		c0.4-0.1,0.8,0,1.2-0.1c0.6,0,1.1,0.1,1.6-0.2C31.3,12.5,31.6,12.4,31.9,12.6z"/>
	<path class="st2" d="M2.8,32.2c-0.9,0-2.1,0.3-2.5-0.1c-0.4-0.4-0.1-1.6-0.1-2.5c0.3-0.1,0.4,0.2,0.5,0.3c0.2,0.3,0.4,0.6,0.6,0.8
		c0.3,0.3,0.6,0.6,1,0.8c0.2,0.1,0.4,0.2,0.5,0.4C2.9,32,2.9,32.1,2.8,32.2z"/>
	<path class="st3" d="M32,13c0.1,0,0.1,0,0.2,0c0,0.3,0,0.7,0,1c-0.1,0.1-0.2,0.1-0.3,0.2c-0.4,0.2-0.8,0-1.2,0.1
		c-0.7,0.1-1.4,0.1-2,0.2c-0.2,0-0.4,0-0.5-0.1c-0.2-0.1-0.6,0.1-0.7-0.4c1.1-0.6,2.3-0.5,3.4-0.7c0.3-0.1,0.7,0,1-0.1
		C31.9,13.1,31.9,13.1,32,13z"/>
	<path class="st4" d="M30.6,0.4c0-0.1,0-0.1,0-0.2c1.6,0,1.6,0,1.6,1.6c0,0.3,0,0.5,0,0.8c-0.1,0.1-0.2,0.1-0.3,0.1
		c-0.1-0.1-0.2-0.2-0.3-0.3c-0.2-0.5-0.4-1-0.8-1.4C30.7,0.8,30.5,0.7,30.6,0.4z"/>
	<path class="st5" d="M0.6,30.1c-0.1-0.2-0.3-0.3-0.4-0.5c0-0.3,0-0.5,0-0.8c0.2-0.1,0.2-0.3,0.3-0.4c0.1,0,0.2,0,0.3,0.2
		C0.9,29.1,1,29.6,0.6,30.1z"/>
	<path class="st6" d="M0.2,2.8c0.1-0.1,0.2-0.1,0.2-0.2c0.4,0,0.4,0.4,0.4,0.6c0,0.3,0,0.6-0.3,0.8c0-0.1-0.2-0.3-0.3-0.4
		C0.2,3.3,0.2,3.1,0.2,2.8z"/>
	<path class="st7" d="M32,2.6c0.1,0,0.1,0,0.2,0c0,0.5,0,0.9,0,1.4h-0.1H32c-0.2-0.1-0.2-0.3-0.3-0.4C31.7,3.2,31.7,2.9,32,2.6z"/>
	<path class="st8" d="M2.8,32.2c0-0.1,0-0.1,0-0.2c0.3-0.3,0.6-0.3,1,0c0,0.1,0,0.1,0,0.2C3.5,32.2,3.1,32.2,2.8,32.2z"/>
	<path class="st9" d="M23.3,15.7c0.2,0.2,0.5,0.5,0.7,0.7c0.3,0.5,0,1-0.4,1.3c-0.5,0.4-0.9,0.9-1.5,1.2c-0.1,0-0.2,0-0.3,0
		c-0.3-0.1-0.6-0.2-0.9-0.5c-0.1-0.4,0.1-0.6,0.4-0.6c-0.2,0-0.4,0.1-0.5,0.4c0,0.1,0,0.2-0.1,0.2s-0.2,0-0.3,0
		c-0.4-0.3-0.8-0.5-1-0.9c0-0.1,0-0.3,0-0.4c0.2-0.4,0.7-0.5,1-0.7s0.6-0.3,0.9-0.4s0.6-0.3,1-0.1c0.1,0,0.1,0.1,0.1,0.1
		c0.2,0.2,0,0.8,0.4,0.7c0.5-0.1,0-0.6,0.1-0.9C23.1,15.8,23.2,15.7,23.3,15.7z"/>
	<path class="st10" d="M18.6,24.4c-1.8,1-3.5,1.9-5.4,2.8c-0.2,0.1-0.4,0.1-0.5,0.1s-0.2,0-0.3-0.1s-0.1-0.2-0.1-0.3
		c0.1-0.2,0.3-0.4,0.4-0.6c1.4-0.9,2.8-1.7,4.2-2.4c0.1,0,0.2,0,0.3,0C17.8,24.1,18.3,24,18.6,24.4z"/>
	<path class="st11" d="M26,19.8c0.1,0.5-0.1,0.8-0.6,1.1c-1.3,0.6-2.5,1.3-3.7,2C21.3,23,21,23.1,20.6,23c-0.3-0.7,0.5-0.6,0.7-0.8
		c0.9-0.4,1.7-1,2.7-1.3c0.2-0.1,0.3-0.2,0.3-0.4c0-0.1,0.1-0.2,0.3-0.3c0.3-0.1,0.6-0.1,0.9-0.1C25.6,19.9,25.8,19.7,26,19.8z"/>
	<path class="st12" d="M27.4,20.6c-0.8,0-1.1-0.7-1.1-1.2c0-0.6,0.8-0.9,1.3-0.9c0.7,0,0.9,0.8,0.9,1.3
		C28.5,20.4,27.8,20.4,27.4,20.6z"/>
	<path class="st13" d="M31.4,22.2c-0.4,0.2-0.8,1-1.3,0.2c-0.2-0.4-1-0.9-0.1-1.4c0.9-0.6,1.1-0.6,1.8,0.6
		C31.9,21.9,31.6,22,31.4,22.2z"/>
	<path class="st14" d="M32,13.2c-0.1,0.6-0.5,0.4-0.9,0.4c-1.3,0.1-2.5,0.2-3.7,0.6c-0.1,0.1-0.1,0.1-0.2,0.2
		c-0.3,0.1-0.6,0.1-0.9,0.3c-0.1,0.1-0.1,0.1-0.1,0.2c-0.6,0.2-1.2,0.4-1.8,0.4c-0.5-0.9,0.4-0.9,0.8-1.2c2.2-0.5,4.3-0.8,6.6-0.9
		C31.8,13.1,31.9,13.1,32,13.2z"/>
	<path class="st15" d="M27.8,23.5c0.4,0.5,1.4,0.3,1.3,1.1c0,0.4,0,1.2-0.7,1.1c-0.5-0.1-1.3-0.1-1.3-1
		C27.2,24.4,27.3,23.8,27.8,23.5z"/>
	<path class="st16" d="M10.9,28.4c-1.4,0.8-2.8,1.5-4.2,2.2c-0.1,0.1-0.2,0.1-0.3,0c-0.2-0.6,0.2-0.8,0.6-1c0.9-0.5,1.7-1.1,2.7-1.6
		c0.2,0,0.3-0.1,0.5,0S10.7,28.1,10.9,28.4z"/>
	<path class="st17" d="M18.6,24.4c-0.5,0-1-0.1-1.4-0.3c0.3-0.8,1.1-1.1,1.8-1.5c0.4,0,0.7,0.3,1.1,0.3c0.2,0.1,0.5,0,0.7,0.3
		C20.1,23.6,19.4,24,18.6,24.4z"/>
	<path class="st18" d="M21,24.8c1-1.2,1.4-1.2,2.1-0.1c0.2,0.4,0.2,0.6-0.3,0.7C21.9,26,21.5,25.3,21,24.8z"/>
	<path class="st19" d="M22,18.8c0.7-0.8,1.9-1.1,2-2.4c0.1,0,0.2,0.1,0.2,0.2c0.1,0.8,0.1,1.5-0.3,2.2c-0.2,0.2-0.5,0.2-0.8,0.3
		c-0.2,0.1-0.3,0.1-0.5,0.2c-0.1,0-0.2,0-0.3,0C22.2,19.2,21.9,19.1,22,18.8z"/>
	<path class="st20" d="M30.1,28.6c0,0.4-0.3,0.6-0.7,0.7c-0.5-0.3-0.9-0.8-1-1.4c0.4-0.2,0.9-0.8,1.2,0.1
		C29.8,28.1,29.9,28.4,30.1,28.6z"/>
	<path class="st21" d="M10.9,28.4c-0.3-0.1-0.6-0.2-1-0.3c0.2-0.8,1-1,1.6-1.3c0.1,0,0.3-0.1,0.4-0.1c0.2,0,0.3,0.1,0.4,0.2
		c0,0.1,0,0.1,0,0.2c-0.5,0.3-1,0.5-1.5,0.8c0.6-0.3,1.1-0.6,1.7-0.8c0.2,0,0.4,0,0.6,0C12.5,27.7,11.7,28.1,10.9,28.4z"/>
	<path class="st22" d="M3.8,32c-0.3,0-0.7,0-1,0c-0.2-0.1-0.4-0.2-0.6-0.2c-0.2-0.5,0-0.8,0.3-1.1c0.1,0,0.2,0,0.3,0
		c0.3,0.1,0.6,0.3,0.9,0.4c0.2,0.1,0.4,0.1,0.6,0.3c0,0.1,0.1,0.3-0.1,0.3C4,31.8,3.8,31.8,3.8,32z"/>
	<path class="st23" d="M28.4,27.8c0.4,0.4,0.8,0.9,1,1.4c-0.4,0.3-0.8,0.6-1.1-0.1C28.1,28.7,27.5,28.2,28.4,27.8z"/>
	<path class="st24" d="M23.8,18.8c0.1-0.7,0.3-1.5,0.4-2.2c0.4,0.3,0.7,0.7,0.9,1.2c-0.2,0.1-0.2,0.3-0.2,0.5c0,0.1-0.1,0.2-0.1,0.2
		c-0.3,0.1-0.5,0.3-0.8,0.4C23.9,18.9,23.9,18.9,23.8,18.8z"/>
	<path class="st25" d="M4.1,31.5c-0.2-0.1-0.4-0.2-0.6-0.2C3.9,30.8,4.1,30,5,30.1c0.3,0.1,0.7,0.1,0.8,0.5C5.7,31,5.3,31,5.1,31.3
		H5C4.8,31.4,4.5,31.6,4.1,31.5z"/>
	<path class="st26" d="M25,14.2c0,0.4-0.9,0.4-0.6,1c-0.3,0.2-0.6,0.2-1,0.2c-0.1,0-0.2-0.1-0.2-0.2c-0.1-0.2,0-0.4,0.1-0.6
		c0.4-0.4,0.9-0.4,1.4-0.5C24.8,14.1,24.9,14.1,25,14.2z"/>
	<path class="st27" d="M23.4,15.2c0,0.1,0,0.2,0.1,0.2c-0.1,0.1-0.1,0.2-0.2,0.3l-0.1,0.1C23,16,22.7,16,22.4,15.9
		c-0.3,0.1-0.7,0.2-1,0.3c-0.2-0.8,0.6-0.7,0.9-1C22.7,15.2,23,15,23.4,15.2z"/>
	<path class="st28" d="M21,24.8c0.6,0.2,1,0.9,1.8,0.6C21.9,26.1,21.5,26,21,24.8z"/>
	<path class="st29" d="M5.2,31.2c0-0.4,0.4-0.4,0.6-0.6c0.1-0.1,0.1-0.1,0.2-0.1s0.3,0,0.4,0.1c0.1,0,0.2,0,0.3,0.1
		C6.2,30.9,5.8,31.3,5.2,31.2z"/>
	<path class="st30" d="M20.8,23.2c-0.3,0-0.5-0.1-0.8-0.1c0-0.2,0-0.3,0.1-0.4c0.1,0,0.2,0,0.3,0c0.4,0,0.9,0,1.3,0
		C21.4,23.1,21.2,23.2,20.8,23.2z"/>
	<path class="st3" d="M26,14.6c0.3-0.4,0.7-0.4,1.2-0.4c0.1,0,0.1,0.1,0.1,0.1c0.1,0.1,0.1,0.2,0.1,0.3c-0.2,0-0.3,0.1-0.5,0.1
		C26.7,14.6,26.3,14.8,26,14.6z"/>
	<path class="st31" d="M25.2,18c0.2,0.2,0.4,0.4,0.4,0.7c0.1,0.2,0,0.4-0.1,0.5c-0.3,0.1-0.4-0.1-0.6-0.3c-0.1-0.2-0.2-0.3-0.1-0.5
		l0,0C25,18.3,25,18.1,25.2,18z"/>
	<path class="st32" d="M25.4,19.2c0.1-0.2,0.1-0.3,0.2-0.5c0.4,0.3,0.1,0.8,0.4,1.1c-0.1,0.1-0.3,0.3-0.4,0.4
		c-0.2-0.2-0.3-0.4-0.3-0.6C25.3,19.4,25.3,19.3,25.4,19.2z"/>
	<path class="st33" d="M4.1,31.5c0.3-0.2,0.6-0.3,1-0.3c-0.1,0.5-0.5,0.6-1,0.6C4.1,31.7,4.1,31.6,4.1,31.5z"/>
	<path class="st19" d="M25.2,18c0,0.3-0.1,0.4-0.4,0.4c0-0.2-0.5-0.7,0.3-0.6C25.1,17.9,25.2,17.9,25.2,18z"/>
	<path class="st34" d="M27.4,14.6c-0.1-0.1-0.1-0.1-0.2-0.2c0.3-0.2,0.7-0.1,1,0c0.1,0,0.3,0.1,0.4,0.1
		C28.2,14.6,27.8,14.6,27.4,14.6z"/>
	<path class="st35" d="M30.1,28.6c-0.4-0.1-0.4-0.4-0.5-0.7C29.9,28,30,28.3,30.1,28.6z"/>
	<path class="st36" d="M30.6,14.4c0.4-0.3,0.8-0.1,1.2-0.1C31.5,14.5,31,14.4,30.6,14.4z"/>
	<path class="st37" d="M26,14.6c0.3,0,0.7-0.1,1,0.1c-0.3,0-0.5,0.1-0.8,0.1C26.1,14.7,26.1,14.7,26,14.6z"/>
	<path class="st38" d="M31.4,22.2c0.1-0.2,0.3-0.4,0.4-0.7C32.2,22.1,31.7,22.1,31.4,22.2z"/>
	<path class="st39" d="M27.9,4.6C28.8,4.7,29.7,5,30.4,4c0.1-0.1,0.1-0.2,0.3-0.3c0.5,0.1,0.9,0.4,1.1,0.8c-0.6,1-1.4,1.1-2.4,0.9
		c-0.9-0.3-1.8-0.6-2.8-0.2c-0.2-0.1-0.3-0.3-0.2-0.5c0.1-0.2,0.2-0.2,0.4-0.2C27.1,4.4,27.5,4.5,27.9,4.6z"/>
	<path class="st40" d="M10.9,0.6c0.2-0.4,0.6-0.2,0.9-0.2c0.5,0.3,1.1,0.5,1.4,1c0.7,1.1,1.3,2.2,1.5,3.4c0.1,0.4,0.1,0.8,0,1.2
		c-0.4,0.2-0.4-0.1-0.5-0.3C14,5.3,14,4.8,13.9,4.4c0-0.1-0.1-0.2-0.1-0.3C13.5,3,12.9,2,11.7,1.6C11.2,1.5,10.9,1.1,10.9,0.6z"/>
	<path class="st41" d="M19.4,11.8c0.1,0.1,0.2,0.2,0.2,0.2c0.2,0.3,0.5,0.6,0.8,0.8c0.3,0.3,0.6,0.6,1,0.9c0.2,0.5,0,0.6-0.4,0.5
		c-0.2-0.1-0.3-0.3-0.6-0.3c-0.1,0-0.2,0-0.3,0c-1.5,0.2-2-0.3-1.8-1.8c0.2-0.3,0.5-0.3,0.8-0.3C19.2,11.7,19.3,11.7,19.4,11.8z"/>
	<path class="st42" d="M17.6,6.3c0.4,0.3,0.7,0.7,1,1.2c0.1,0.1-1.1,1.3-1.3,1.2c-0.5-0.2-0.8-0.7-1-1.2C16.2,7.3,17.4,6.3,17.6,6.3
		z"/>
	<path class="st43" d="M15.2,3.4c-0.3-0.2-0.8-0.5-0.5-0.9c0.2-0.4,0.7-1,1.1-0.9c0.5,0.1,0.9,0.7,1.1,1.2
		C16.3,3.3,15.9,3.9,15.2,3.4z"/>
	<path class="st44" d="M14.6,6c0-1.4-0.4-2.7-1.1-4c-0.1-0.2-0.3-0.4-0.3-0.7c1.5,1.3,1.7,3.2,1.9,5.1c0,0.3,0,0.7,0,1
		c-0.1,0.1-0.2,0.1-0.3,0C14.6,7,14.3,6.5,14.6,6z"/>
	<path class="st45" d="M19.4,11.8c-0.1,0-0.1,0-0.2,0c-0.6,0.2-0.9-0.2-1.3-0.5c-0.4-0.4-0.8-0.7-1.5-0.6c-0.1,0-0.2,0-0.3,0
		c-0.1-0.1-0.2-0.2-0.3-0.3c-0.1-0.3-0.3-0.7,0-1c0.4-0.1,0.7,0.2,1,0.2C17.6,10.4,18.8,10.8,19.4,11.8z"/>
	<path class="st46" d="M30.6,0.4c0.1,0.1,0.3,0.2,0.4,0.4c0.6,1.4,0.6,1.4-0.2,2c-0.2,0-0.4-0.2-0.6-0.3C29.8,1.6,29.8,0.9,30.6,0.4
		z"/>
	<path class="st47" d="M22.8,8.2c0,0.2,0,0.4,0,0.6c-0.1,0.1-0.2,0.1-0.4,0.1c-1,0.1-0.5,0.8-0.5,1.2c0.1,0.5,0.3,0.9,0.7,1.2
		c0.1,0.1,0.1,0.1,0.2,0.2c0,0.1,0,0.2,0,0.3C22.6,12,22.4,12,22.2,12c-0.4-0.2-0.7-0.5-0.9-0.9c0-0.3,0-0.6-0.1-1
		c0-0.5-0.1-0.9,0-1.4C21.4,7.8,22,7.6,22.8,8.2z"/>
	<path class="st48" d="M25.8,3.3c-0.3,0-0.2,1-0.8,0.4c-0.1-0.5-0.2-1-0.4-1.5c0.3-0.4,0.7-0.7,1.2-0.4C26.1,2.3,26.4,2.8,25.8,3.3z
		"/>
	<path class="st49" d="M22.8,8.2c-1-0.3-1.3-0.1-1.4,0.9c0,0.4,0,0.7,0,1.1c-0.1,0.1-0.1,0.2-0.2,0.2c-0.2-1-0.3-2,0-3.1
		c0.2-0.1,0.1,0.5,0.4,0.2c0.2-0.2,0.6-0.2,0.9-0.1c0.1,0,0.2,0.1,0.2,0.2C22.8,7.8,22.8,8,22.8,8.2z"/>
	<path class="st50" d="M26.6,5.2c1-0.7,1.9-0.1,2.8,0.2c-0.5,0.1-1-0.2-1.4-0.3c-0.3,0-0.6-0.2-0.8,0.1c-0.2,0.2,0.1,0.5,0.2,0.7
		c0,0.1,0.1,0.2,0.1,0.4C26.5,6.4,26.4,6.1,26.6,5.2z"/>
	<path class="st51" d="M31.8,4.6c-0.4-0.3-0.8-0.5-1.2-0.8c-0.2-0.2-0.1-0.4-0.1-0.5c0.4-0.3,0.8-0.1,1.2-0.1
		c0.2,0.1,0.1,0.3,0.2,0.5C32,3.7,32,3.9,32,4C32,4.2,32,4.5,31.8,4.6z"/>
	<path class="st52" d="M20.4,13.6c0.2,0,0.4,0.1,0.6,0.3c0.3,0.4,0.4,0.1,0.4-0.2c0.2,0,0.4,0.1,0.5,0.3v0.1
		c-0.4,0.7-1.2,0.8-1.9,0.9c-0.2,0-0.4-0.1-0.5-0.3C19.7,14.3,20.3,14.1,20.4,13.6z"/>
	<path class="st53" d="M26.8,7.7c-0.6-0.8-1.3-1.6-0.6-2.7c0.3,0.7,0.2,1.6,1.3,1.8l0,0C27.5,7.3,27.1,7.5,26.8,7.7z"/>
	<path class="st54" d="M22.8,11.6L22.8,11.6h-0.2C22,10.8,21.7,10,21.9,9c0.1-0.2,0.3-0.3,0.5-0.2c0.1,0,0.3,0,0.4,0
		c0,0.1,0,0.3,0,0.4c-0.4,0.3-0.3,0.8-0.3,1.2c0,0.2,0.2-0.1,0.2,0c0.1,0.1,0.1,0.2,0.1,0.4C22.9,11,23,11.3,22.8,11.6z"/>
	<path class="st55" d="M27.5,6.7c-1.2-0.1-1.2-0.1-1.3-1.8c0.1-0.1,0.1-0.1,0.2-0.2c0.1,0.2,0.1,0.3,0.2,0.5c0,0.5,0.1,1.1,0.8,1.2
		C27.4,6.5,27.4,6.6,27.5,6.7z"/>
	<path class="st56" d="M22.8,7.6c-0.1,0-0.1,0-0.2,0c-0.2-0.2-0.6-0.2-0.8-0.2c-0.2,0-0.5-0.1-0.4-0.4c0.5-0.9,1.2-0.1,1.8-0.1
		c0.1,0.1,0.1,0.3,0,0.4C22.9,7.2,22.8,7.4,22.8,7.6z"/>
	<path class="st57" d="M26.2,8.6c0.3-0.1,0.8,0.2,1-0.2c0.2-0.1,0.4,0,0.5,0.2c-0.3,1.2-1,0.4-1.6,0.4c0.1-0.1,0.3-0.1,0.4-0.1
		s0.1,0,0.1,0C26.7,8.7,26.2,9.1,26.2,8.6z"/>
	<path class="st58" d="M27.8,8.6c-0.2-0.1-0.3-0.2-0.5-0.2C27.2,8.3,27.1,8.1,27,8c0-0.5,0.1-0.9,0.7-0.8C28.1,7.6,28,8,27.8,8.4
		C27.8,8.5,27.8,8.6,27.8,8.6z"/>
	<path class="st59" d="M15.2,3.4c0.7,0.2,1-0.5,1.6-0.6C16.2,4,15.8,4.2,15.2,3.4z"/>
	<path class="st60" d="M24.6,2.2c0.7,0.4,0.6,0.9,0.4,1.5C24.6,3.2,24,2.9,24.6,2.2z"/>
	<path class="st61" d="M21.4,7c0.3,0.5,1.1-0.1,1.2,0.6c-0.4,0.1-0.7,0-1.1,0.2C21,8,21.3,7.5,21.2,7.4C21.2,7.2,21.2,7.1,21.4,7z"
		/>
	<path class="st62" d="M16.8,9.6c-0.3-0.1-0.7-0.1-1-0.2c-0.2,0-0.4,0-0.5-0.2c-0.1-0.1-0.2-0.2-0.2-0.3c0-0.2-0.1-0.5,0.3-0.5
		C15.9,8.8,16.3,9.2,16.8,9.6z"/>
	<path class="st63" d="M25.6,8.8c-0.6-0.1-1-0.4-1.4-0.9c0.6-0.1,0.9,0.5,1.4,0.5C25.7,8.6,25.7,8.7,25.6,8.8z"/>
	<path class="st64" d="M22.6,10.4c0,0.1-0.1,0.4-0.2,0.1c-0.2-0.5-0.5-1.1,0.4-1.3c0,0.2,0,0.4,0,0.6C22.7,10,22.8,10.2,22.6,10.4z"
		/>
	<path class="st65" d="M25.8,3.3c0.3-0.5,0-1,0-1.4C26.6,2.5,26.6,2.8,25.8,3.3z"/>
	<path class="st55" d="M27.8,8.4C27.7,8,28,7.5,27.6,7.2c-0.1-0.1-0.1-0.2,0-0.2C28.4,7.5,28.5,8,27.8,8.4z"/>
	<path class="st66" d="M15.4,8.4c-0.2,0.2-0.2,0.4-0.2,0.6c0.2,0.4,0.3,0.9,0.2,1.3c0,0.1-0.1,0.2-0.2,0.3c-0.1,0-0.2,0-0.3-0.1
		c-0.3-0.8-0.3-1.5,0-2.3c0.1-0.1,0.2-0.1,0.3-0.1C15.3,8.2,15.3,8.3,15.4,8.4z"/>
	<path class="st67" d="M25.6,8.8c0-0.1,0-0.3,0-0.4c0.2,0.1,0.4,0.1,0.6,0.2c0.2,0.1,0.4,0.2,0.7,0.3C26.6,9,26.4,9,26.2,9
		C26,9,25.8,9,25.6,8.8z"/>
	<path class="st68" d="M27.6,7c0,0.1,0,0.2,0,0.2C27.2,7.3,27.2,7.7,27,8c-0.1-0.1-0.2-0.2-0.2-0.3c0-0.5,0.5-0.5,0.7-0.9
		C27.5,6.8,27.6,6.9,27.6,7z"/>
	<path class="st69" d="M21.4,11.2c0.5,0.1,0.5,0.5,0.8,0.8c-0.3,0-0.7,0.2-0.8-0.3C21.3,11.5,21.3,11.4,21.4,11.2z"/>
	<path class="st70" d="M30.6,3.2c0,0.2,0,0.4,0,0.6c-0.1,0.1-0.1,0.1-0.2,0.2c0-0.5,0.1-1.1-0.2-1.6c0.2,0,0.3,0,0.4,0.2
		C30.8,2.8,30.8,3,30.6,3.2z"/>
	<path class="st71" d="M31,12.6c-0.5,0.4-1.1,0.1-1.6,0.2c-0.1,0-0.1-0.1-0.1-0.1s0-0.1,0.1-0.1c0.4,0,0.8,0,1.1-0.1
		C30.7,12.5,30.9,12.5,31,12.6z"/>
	<path class="st72" d="M15.2,8.2c-0.1,0-0.1,0-0.2,0c-0.1,0.1-0.2,0-0.3-0.1c-0.1-0.3-0.2-0.7,0.3-0.8c0.1,0,0.1,0,0.2,0
		C15.2,7.7,15.2,7.9,15.2,8.2z"/>
	<path class="st73" d="M23.2,7.2c0-0.1,0-0.3,0-0.4c0.1,0,0.2,0.1,0.2,0.1c0.1,0.2,0.6,0.2,0.3,0.5C23.5,7.8,23.4,7.4,23.2,7.2z"/>
	<path class="st74" d="M21.4,11.2c0,0.2,0,0.3,0,0.5c-0.3-0.4-0.2-0.8-0.2-1.3c0.1-0.1,0.2-0.1,0.2-0.2
		C21.4,10.5,21.4,10.9,21.4,11.2z"/>
	<path class="st75" d="M20.4,12.8c-0.5,0-0.8-0.3-0.8-0.8C20,12.2,20.2,12.5,20.4,12.8z"/>
	<path class="st76" d="M31,12.6c-0.1,0-0.3,0-0.4,0c0.5-0.1,0.9-0.3,1.4,0C31.6,12.6,31.3,12.6,31,12.6z"/>
	<path class="st77" d="M22.6,10.4c0-0.2,0-0.5,0.2-0.6c0.1,0.3,0.2,0.5,0.1,0.8c0,0.1-0.1,0.1-0.1,0C22.7,10.5,22.7,10.5,22.6,10.4z
		"/>
	<path class="st78" d="M22.8,10.6h0.1c0,0.4,0.2,0.9-0.1,1.2c0-0.1,0-0.2,0-0.2C22.8,11.3,22.8,10.9,22.8,10.6z"/>
	<path class="st76" d="M29.4,12.6c0,0.1,0,0.1,0,0.2c-0.4,0-0.8,0-1.3,0C28.5,12.5,29,12.6,29.4,12.6z"/>
	<path class="st50" d="M27.9,4.6c-0.4,0-0.8,0-1.1,0C27.1,4.4,27.5,4.4,27.9,4.6z"/>
	<path class="st79" d="M5,16.2C5,16.1,5,16,5,16c0.3-0.3,0.3-0.7,0.4-1.1c0.1-0.3,0.2-0.6,0.6-0.8c0.5,0.1,0.6,0.5,0.7,0.9
		c0,0.1,0.1,0.2,0.1,0.3c-0.3,1.5-1.1,2.7-1.7,4.1c-0.1,0.3-0.4,0.4-0.7,0.4c-0.2,0-0.3-0.1-0.4-0.2c-0.2-0.4,0-0.8,0-1.2l0,0
		c0.3-0.2,0.3-0.7,0.6-1l0,0C4.9,17,4.8,16.6,5,16.2z"/>
	<path class="st80" d="M5.4,8.4C5.8,8.3,6,8.6,6.2,8.8c0.5,0.7,0.4,1.5-0.1,2.2c-0.1,0.2-0.3,0.3-0.5,0.3c-0.1,0-0.2,0-0.3-0.1v-0.1
		c0.2-0.6,1-1.2,0.5-1.8c-0.3-0.7-1.2-0.4-2-0.4c-0.5,0-0.9,0.1-1.4,0C1.7,8.9,1.1,8.6,1,7.8c0-0.7,0.6-1,1.2-1.2
		c0.1,0.1,0.3,0,0.4,0.2c0,0.1,0,0.1,0,0.2C2.1,7.2,1.9,7.7,1.8,8.2c0.3,0.4,0.7,0.3,1.1,0.3s0.7,0,1.1,0S4.9,8.6,5.4,8.4z"/>
	<path class="st81" d="M0.6,4c0-0.3,0-0.6,0-0.8C0.9,2.8,1.1,3,1.3,3.3c0.4,0.8,1,0.8,1.7,0.9c0.7,0,1.4-0.1,2,0.4
		C5.1,5,5.2,5.3,4.6,5.5c-0.1,0-0.1-0.1-0.2-0.1C4,5.1,3.6,5.5,3.2,5.3C2.6,5.2,1.9,5,1.3,4.8C1.1,4.5,0.5,4.6,0.6,4z"/>
	<path class="st82" d="M1.2,26c0.6-1.3,0.9-2.8,1.6-4c0.1-0.1,0.3-0.1,0.4,0c0.1,0.1,0.2,0.3,0.3,0.5c0,0.1,0,0.3,0,0.4
		c-0.6,1.1-0.8,2.4-1.6,3.4C1.6,26.4,1.4,26.1,1.2,26z"/>
	<path class="st83" d="M3.6,17.4c-0.1,0.4-0.2,1.1-0.9,0.5c-0.3-0.5-0.2-1.1-0.1-1.7C2.7,16,2.8,15.9,3,16c0.2,0.2,0.6,0.1,0.7,0.4
		C3.7,16.7,3.4,17,3.6,17.4z"/>
	<path class="st84" d="M5.8,13.4C5.9,12.9,6,12.5,6.2,12c-0.1-0.3-0.1-0.5,0.1-0.7c0.1-0.1,0.2-0.2,0.4-0.2c0.1,0,0.2,0,0.2,0.1
		c0.2,0.4,0,0.7,0,1.1c0,0.1,0,0.3-0.1,0.4c-0.2,0.3-0.3,0.7-0.5,1c-0.1,0.1-0.2,0.1-0.3,0.1C5.8,13.7,5.8,13.6,5.8,13.4z"/>
	<path class="st6" d="M1.3,4.8c0.8-0.3,1.4,0.3,2.1,0.4c0.3,0.1,0.7,0,0.9,0.5C4,6,3.8,6,3.5,5.8C3.2,5.2,2.7,5.5,2.3,5.3
		C1.9,5.2,1.6,5.1,1.3,4.8z"/>
	<path class="st85" d="M2.8,16.2c0.1,0.6-0.1,1.1,0,1.7c-0.9-0.3-0.9-0.8-0.4-1.5C2.5,16.2,2.6,16.1,2.8,16.2z"/>
	<path class="st86" d="M1.2,26c0.2,0.1,0.4,0.1,0.6,0.2c0.3,0.3,0.4,0.8,0.8,1.1c0.1,0.2,0.2,0.4,0.1,0.7c-0.3,0.2-0.6,0-0.8-0.2
		c-0.2-0.3-0.4-0.6-0.5-0.9c-0.1-0.2-0.1-0.4,0-0.6C1.3,26.2,1.2,26.1,1.2,26z"/>
	<path class="st87" d="M5.8,13.4C5.9,13.5,6,13.7,6,13.8c0.1,0.1,0.1,0.3,0,0.4c-0.1,0.3-0.3,0.6-0.4,0.8c-0.1,0.1-0.3,0.1-0.4,0
		C5.3,14.4,5.5,13.9,5.8,13.4z"/>
	<path class="st88" d="M1.4,26.3c0.1,0.2,0.1,0.3,0.2,0.5c-0.2,0.4,0.1,1.1-0.6,1.3c-0.1,0-0.2,0-0.3-0.1c0-0.2-0.1-0.4,0.1-0.6
		C1,27,0.8,26.5,1.4,26.3z"/>
	<path class="st89" d="M5.6,11.2C5.7,11.1,5.9,11.1,6,11c0.1,0.1,0.1,0.2,0.1,0.3c0,0.5-0.4,0.7-0.7,1c-0.3,0.2-0.4,0.6-0.8,0.3
		c0-0.1,0-0.1,0-0.2C4.9,12,5.2,11.5,5.6,11.2z"/>
	<path class="st90" d="M5,16.2c0.3,0.5,0.2,1-0.4,1.2C4.7,17,4.4,16.4,5,16.2z"/>
	<path class="st91" d="M5.6,11.2c-0.2,0.5-0.5,0.9-1,1.2c-0.1-0.6,0.4-0.9,0.7-1.2C5.4,11.2,5.5,11.2,5.6,11.2z"/>
	<path class="st92" d="M5.2,15c0.1,0,0.3,0,0.4,0c0,0.4,0,0.9-0.6,1C5,15.6,5,15.3,5.2,15z"/>
	<path class="st93" d="M3.1,20.8c0.1-0.4,0.2-0.8,0.4-1.2c0.1-0.1,0.2-0.1,0.3,0c0.2,0.5,0.1,1-0.4,1.3C3.3,20.9,3.2,20.9,3.1,20.8z
		"/>
	<path class="st94" d="M2.6,6.8c-0.2,0-0.3,0-0.4-0.2C2.5,6.3,3,6.1,3.4,6l0.1,0.1C3.4,6.6,3,6.8,2.6,6.8z"/>
	<path class="st95" d="M3.1,20.8c0.1,0,0.2,0,0.2,0c0.3,0.5,0.1,0.9-0.2,1.2c-0.1,0-0.2,0-0.3,0C2.7,21.5,2.9,21.1,3.1,20.8z"/>
	<path class="st96" d="M5.4,12.2c0.2-0.3,0.4-0.7,0.6-1c0.2-0.1,0.3,0,0.4,0.2c-0.1,0.2-0.2,0.4-0.2,0.6c-0.2,0.1-0.4,0.1-0.5,0.2
		C5.5,12.3,5.5,12.3,5.4,12.2z"/>
	<path class="st97" d="M3.6,17.4c-0.4-0.4-0.2-0.7,0.1-1C4.3,16.8,3.7,17.1,3.6,17.4z"/>
	<path class="st98" d="M4.6,17.4c0,0.5,0,0.9-0.6,1C4.1,18,4,17.5,4.6,17.4z"/>
	<path class="st99" d="M3.8,19.6c-0.1,0-0.1,0-0.2,0c0-0.4,0.2-0.8,0.4-1.2c0,0.4,0,0.8,0.1,1.2c0,0,0,0.1-0.1,0.1
		S3.8,19.7,3.8,19.6z"/>
	<path class="st100" d="M2.8,16.2c-0.1,0.1-0.3,0.1-0.4,0.2c-0.2-0.4,0.1-0.6,0.4-0.7C2.9,15.6,3,15.8,3,16C3,16,2.9,16.1,2.8,16.2z
		"/>
	<path class="st101" d="M5.4,12.2c0.1,0,0.1,0,0.2,0c-0.3,0.3-0.5,1-1.1,0.5v-0.1c0,0,0.1,0,0.1-0.1C4.9,12.6,5.1,12.3,5.4,12.2z"/>
	<path class="st102" d="M3.5,5.8c0.3,0,0.6,0.1,0.7-0.2c0.1-0.2,0.2-0.3,0.4-0.2c0,0,0,0.1,0.1,0.1c0,0.3-0.2,0.5-0.4,0.6
		C3.9,6.2,3.7,6.2,3.4,6l0,0C3.4,5.9,3.4,5.9,3.5,5.8z"/>
	<path class="st103" d="M0.8,27.4c0,0.2,0,0.4,0,0.6c0.1,0.1,0.1,0.3,0,0.4s-0.2,0.1-0.3,0H0.4C0.6,28,0.7,27.7,0.8,27.4z"/>
	<path class="st104" d="M11.2,5.8C12,6.1,12.7,6.5,13.4,7c0.2,0,0.4,0.1,0.5,0.3C14,8,14.1,8.7,13.8,9.5c-0.1,0.1-0.2,0.1-0.3,0.1
		c-0.3-0.2-0.3-0.6-0.3-0.9c0-0.2,0.1-0.5,0-0.8c-0.4,0.4-0.5,0.9-0.8,1.2c-0.3,0.4-0.7,0.7-1.2,0.2c-0.5-0.8-0.8-1.7,0-2.6
		c0.2-0.3,0-0.6-0.1-0.8C11.1,6,11.1,5.9,11.2,5.8z"/>
	<path class="st105" d="M5,4.6C4.2,4.3,3.5,4.4,2.7,4.4C2,4.5,1.4,4.3,1.2,3.5C1.1,3.3,1,3,0.6,3.2c0-0.2,0-0.4-0.2-0.6
		C1,1.4,1.8,0.8,3.1,0.8C3,1.2,2.8,1.4,2.5,1.4C1.4,2.2,1.2,2.7,1.8,3.6C2.5,3.7,3.2,3.9,3.9,4C4.4,4,4.8,4.1,5,4.6z"/>
	<path class="st106" d="M7,9.6C7.6,8.9,7.6,8,7.9,7.3c0.1-0.4,0.2-0.8,0.5-1C8.6,6.5,8.6,6.8,8.7,7c0.1,0,0.2,0.1,0.2,0.3
		c0,0.1,0,0.2,0,0.3c-0.3,1-0.7,2-1.1,2.9c-0.1,0.3-0.3,0.7-0.7,0.8c-0.1,0-0.2-0.1-0.2-0.2c-0.2-0.3-0.1-0.6-0.1-0.9
		C6.8,9.9,6.8,9.7,7,9.6z"/>
	<path class="st107" d="M12.3,2.8c-0.3-0.2-0.7-0.4-1-0.6C10.6,2,10.4,1.6,10.6,1c0.2,0.7,0.8,0.5,1.2,0.6C13,2,13.5,3.1,13.9,4.1
		l0,0C14.1,4.3,14,4.6,14,4.8c-0.3,0.3-0.4,0-0.6-0.2C13.1,4.1,12.9,3.3,12.3,2.8z"/>
	<path class="st108" d="M14,4.2c-0.3-0.1-0.3-0.4-0.5-0.7c-0.4-0.9-1-1.5-2-1.7C11,1.7,10.8,1.5,10.6,1c0-0.2,0.1-0.3,0.2-0.4
		c0.3,0.5,0.8,0.8,1.4,1C13.4,2.1,13.8,3.1,14,4.2z"/>
	<path class="st109" d="M7,9.6c0,0.2,0,0.4,0,0.6c-0.1,0.3,0,0.7-0.4,1c-0.1,0.1-0.1,0.1-0.2,0.2c-0.1-0.1-0.3-0.1-0.4-0.2
		c0-0.1,0-0.1,0-0.2c0.4-0.7,0.2-1.4,0.2-2.2C6.8,8.7,6.8,9.3,7,9.6z"/>
	<path class="st110" d="M7.4,4.6C7.9,5,8.8,5.4,7.6,6C7,6.2,6.7,5.7,6.5,5.2C6.4,4.9,6.6,4.7,6.8,4.5C7.1,4.3,7.3,4.4,7.4,4.6z"/>
	<path class="st111" d="M7.4,4.6C7,4.5,6.6,4.6,6.6,5c0,0.5,0.4,0.9,0.9,1.1c0,0.1-0.2,0.2-0.3,0.3C6.6,6,5.9,5.7,6.4,4.8
		C6.7,4.6,6.9,3.7,7.4,4.6z"/>
	<path class="st112" d="M8.8,7.2C8.7,7.1,8.7,7.1,8.6,7c-0.1-0.3,0.1-0.6,0-0.8c0-0.2-0.1-0.5,0.2-0.6c0.2-0.1,0.3,0,0.4,0.1
		c0,0.1,0,0.3,0,0.5c0,0.1,0.1,0.2,0.1,0.4c0.2,0.3,0.3,0.5,0.4,0.9c0,0.1,0,0.3-0.1,0.4C9.1,7.9,9,7.5,8.8,7.2z"/>
	<path class="st113" d="M1.8,3.6C0.9,2.8,1.1,1.8,2.5,1.4C2.2,2.2,1.2,2.6,1.8,3.6z"/>
	<path class="st114" d="M12.3,2.8c0.9,0.3,0.9,1.2,1.3,1.8c0.1,0.3,0.4,0.6,0.2,1c-0.1,0.1-0.2,0.1-0.3,0
		C13.3,4.6,12.9,3.6,12.3,2.8z"/>
	<path class="st115" d="M6.4,4.8C6.2,5.6,6.9,5.9,7.2,6.4C6.5,6.7,6.3,6,6,5.6S6.2,5,6.4,4.8z"/>
	<path class="st116" d="M11.4,3.5c0.4,0,0.5,0.4,0.3,0.6c-0.3,0.3-0.4,1.1-1.1,0.7C10.4,4.1,10.9,3.8,11.4,3.5z"/>
	<path class="st117" d="M10.4,4.6C10.2,4.5,10,4.4,9.8,4.2c0-0.7,0.7-0.9,1.1-1.3C11,3,11.2,3.2,11.3,3.3
		C11.2,3.9,10.5,4.1,10.4,4.6z"/>
	<path class="st118" d="M10.8,3c-0.4,0.4-0.7,0.9-1.1,1.3C9.7,4.2,9.5,4,9.5,4C9.8,3.4,10.2,3.1,10.8,3z"/>
	<path class="st119" d="M9.8,5.4c0.2,0.1,0.4,0.2,0.6,0.2c0.3,0.3,0.4,0.6-0.1,0.7c-0.1,0-0.2,0-0.3,0C9.7,6.1,9.3,6.1,9.1,5.7
		C9.3,5.4,9.4,5.2,9.8,5.4z"/>
	<path class="st120" d="M10.2,6.2c0.5,0,0.2-0.4,0.2-0.6c0.3-0.1,0.6,0,0.8,0.2c0,0.1,0,0.1,0,0.2c-0.1,0.3-0.1,0.5-0.1,0.8
		C11,6.9,11,6.9,10.9,6.9c-0.3,0-0.5-0.2-0.7-0.4C10.1,6.4,10.1,6.3,10.2,6.2z"/>
	<path class="st121" d="M10.4,4.6c-0.1-0.7,0.5-0.9,0.8-1.3c0.1,0.1,0.1,0.1,0.2,0.2c-0.2,0.5-0.8,0.7-0.8,1.3
		C10.5,4.8,10.5,4.7,10.4,4.6z"/>
	<path class="st122" d="M3.4,6c0.3,0,0.5,0,0.8,0c-0.5,0.4-1,0.8-1.6,1c0-0.1,0-0.1,0-0.2C2.9,6.6,3.3,6.5,3.4,6z"/>
	<path class="st123" d="M13.5,5.6c0.1,0,0.2,0,0.2,0C14,5.9,14,6.4,13.9,6.8c0,0.2-0.1,0.3-0.3,0.5c-0.1-0.1-0.2-0.1-0.4-0.2
		C13.8,6.6,13.5,6.1,13.5,5.6z"/>
	<path class="st124" d="M5.4,8.4C5,8.8,4.5,8.5,4,8.6c-0.1,0-0.1-0.1-0.1-0.1s0-0.1,0.1-0.1C4.5,8.3,4.9,8.3,5.4,8.4z"/>
	<path class="st125" d="M8.6,6.2C9,6.4,8.7,6.7,8.6,7C8.3,6.8,8.4,6.5,8.4,6.2C8.5,6.2,8.5,6.2,8.6,6.2z"/>
	<path class="st126" d="M2.8,8.6c-0.4-0.1-0.9,0.3-1-0.4c0.3,0.1,0.7,0.2,1,0.2C2.9,8.5,2.9,8.5,2.8,8.6L2.8,8.6z"/>
	<path class="st127" d="M9.8,5.4C9.6,5.5,9.3,5.5,9.2,5.8C9.1,5.9,9.1,5.9,9,5.8C8.9,5.7,8.8,5.7,8.8,5.6C9.1,5.3,9.4,5.1,9.8,5.4z"
		/>
	<path class="st128" d="M2.8,8.6c0-0.1,0-0.1,0-0.2c0.4,0,0.8,0,1.2,0c0,0.1,0,0.1,0,0.2C3.6,8.6,3.2,8.6,2.8,8.6z"/>
	<path class="st129" d="M20,14.8c0.7,0,1.3-0.5,1.9-0.7c0.6,0.6,1.2-0.1,1.8-0.1c0.2,0.4-0.3,0.4-0.4,0.6c0,0.2,0,0.4,0,0.6
		c-0.3,0.2-0.7,0.2-1,0.2c-1.1,0.1-2.1,0.9-3.3,0.5c-0.2-0.1-0.2-0.2-0.2-0.4s0.1-0.3,0.2-0.4C19.4,14.9,19.7,15,20,14.8z"/>
	<path class="st76" d="M25,14.2c-0.1,0-0.1,0-0.2,0c-0.1-0.5,0.5-0.1,0.6-0.4c2.2-0.5,4.4-0.9,6.6-0.8c0,0.1,0,0.1,0,0.2
		C29.6,13.4,27.3,13.8,25,14.2z"/>
	<path class="st130" d="M25.4,13.8c-0.2,0.1-0.4,0.3-0.6,0.4c-0.5,0.1-0.9,0.3-1.4,0.4c-0.1-0.4,0.4-0.3,0.4-0.6
		C24.3,14,24.8,13.7,25.4,13.8z"/>
	<path class="st131" d="M2.6,30.8c-0.1,0.3-0.3,0.7-0.4,1c-0.4-0.3-0.8-0.5-1-0.9c-0.1-0.4-0.1-0.7,0.3-1c0.2-0.1,0.4-0.1,0.6,0
		c0.2,0.2,0.5,0.3,0.6,0.6C2.7,30.6,2.7,30.7,2.6,30.8z"/>
	<path class="st132" d="M1.7,30c-0.3,0.2-0.3,0.6-0.5,0.9c-0.3-0.2-0.5-0.5-0.6-0.8c0-0.5,0-1.1,0-1.6c0.1,0,0.1,0,0.2,0
		C1.2,28.9,1.7,29.3,1.7,30z"/>
	<path class="st133" d="M28.2,14.4c-0.3,0-0.7,0-1,0c0-0.1,0-0.1,0-0.2c0.1,0,0.1,0,0.2,0C27.7,14.2,28,14.1,28.2,14.4z"/>
	<path class="st134" d="M30.6,3.2c0-0.2,0-0.4,0-0.6c0.6,0,0.6-0.5,0.6-0.9c0-0.3-0.1-0.6-0.2-0.9c0.5,0.4,0.8,1,0.8,1.6
		c0.1,0.3,0.1,0.5,0,0.8C31.4,3.5,31,3.4,30.6,3.2z"/>
	<path class="st135" d="M31.8,3.2c0-0.3,0-0.5,0-0.8c0.1,0.1,0.1,0.1,0.2,0.2c0,0.3,0,0.7,0,1C31.8,3.5,31.8,3.3,31.8,3.2z"/>
	<path class="st136" d="M19,15.8c1.2,0.2,2.2-0.6,3.4-0.4c-0.3,0.4-1,0.2-1,0.8c-0.3,0.1-0.5,0.3-0.8,0.4c-0.5,0-0.9,0.2-1.2,0.5
		c-0.2,0.1-0.4,0.1-0.6,0s-0.4-0.3-0.5-0.5c0-0.1,0-0.2,0-0.3C18.4,16,18.7,15.9,19,15.8z"/>
	<path class="st137" d="M19.6,17.6c0.4,0.2,0.8,0.4,1,0.8c-0.1,0.3,0.2,0.3,0.4,0.4c0.3,0.2,0.8,0.4,0.6,0.9
		c-0.2,0.2-0.4,0.2-0.7,0.2c-0.5,0-0.9,0.3-1.3,0.5c-0.5,0.2-0.8-0.1-0.6-0.5c0.4-0.7,0.4-1.3,0.2-2c0-0.1,0.1-0.2,0.2-0.2
		C19.4,17.5,19.5,17.5,19.6,17.6z"/>
	<path class="st138" d="M22.4,15.9c0.2-0.2,0.5-0.1,0.8-0.1c0.1,0.2,0.1,0.4,0.2,0.6s0.3,0.5,0,0.7c-0.2,0.2-0.4,0.2-0.7,0.1
		c-0.4-0.1-0.3-0.4-0.3-0.6C22.4,16.3,22.4,16.1,22.4,15.9z"/>
	<path class="st139" d="M21.6,19.6c-0.1-0.4-0.5-0.5-0.8-0.8c-0.1-0.1-0.1-0.2,0-0.4l0,0c0.1-0.1,0.1-0.1,0.2,0
		c0.3,0,0.6,0.2,0.8,0.4c0,0.2,0.2,0.3,0.3,0.4c0.1,0.2,0.2,0.4,0.3,0.5c0.1,0.2,0.3,0.4,0.3,0.7c-0.1,0.1-0.2,0.2-0.3,0.3
		c-0.1,0-0.3,0-0.4-0.1C21.8,20.3,21.4,20.1,21.6,19.6z"/>
	<path class="st140" d="M21,18.4L21,18.4c-0.1,0-0.2,0-0.2,0c0-0.9,0.5-0.9,1.2-1C22.1,18.2,21,17.7,21,18.4z"/>
	<path class="st141" d="M19.4,17.1c0.3-0.4,0.6-0.9,1.2-0.5c-0.3,0.3-0.8,0.2-1,0.6C19.5,17.2,19.4,17.2,19.4,17.1z"/>
	<path class="st142" d="M19.4,17.1c0.1,0,0.1,0.1,0.2,0.1c0,0.1,0,0.3,0,0.4c-0.1,0-0.1,0-0.2,0.1c-0.2,0.1-0.4,0.1-0.5-0.1
		s-0.2-0.4,0-0.6C19,17,19.2,17,19.4,17.1z"/>
	<path class="st143" d="M20.8,18.4c0,0.1,0,0.2,0,0.4c-0.2,0.1-0.4,0.2-0.5,0c-0.1-0.3,0.1-0.3,0.3-0.4
		C20.7,18.4,20.7,18.4,20.8,18.4z"/>
	<path class="st144" d="M22,19.2c-0.1-0.1-0.4-0.1-0.2-0.4c0.1,0,0.1,0,0.2,0c0.1,0.1,0.3,0.3,0.4,0.4c0.1,0,0.1,0.1,0.1,0.1
		c0,0.1,0,0.1,0,0.1C22.2,19.5,22.1,19.3,22,19.2z"/>
	<path class="st145" d="M17,24.2c-1.4,0.8-2.8,1.6-4.2,2.5c-0.1,0.1-0.2,0-0.2,0c0-0.5,0.4-0.6,0.7-0.8c0.7-0.4,1.4-0.9,2.1-1.3
		c0.4-0.2,0.8-0.5,1.3-0.6C16.8,23.9,17,23.9,17,24.2z"/>
	<path class="st146" d="M17,24.2c-0.1-0.1-0.2-0.1-0.4-0.2c-0.1,0-0.2-0.1-0.1-0.2c0.4-0.6,1.2-0.8,1.7-1.3c0.2-0.1,0.3-0.1,0.5-0.1
		c0.1,0,0.2,0.1,0.2,0.1c0,0.1,0.1,0.2,0,0.2c-0.6,0.4-1.2,0.9-1.8,1.3C17.2,24.1,17.1,24.2,17,24.2z"/>
	<path class="st147" d="M12.6,27.2c-0.6,0.5-1.3,0.7-2,0.9c0.6-0.4,1.1-0.9,1.8-1C12.5,27.2,12.5,27.2,12.6,27.2z"/>
	<path class="st148" d="M12.6,26.6c0.1,0,0.2,0,0.3,0c0,0.3-0.2,0.4-0.4,0.4c-0.1,0-0.3,0-0.4,0C12,27,12,26.9,12,26.9
		c0-0.1,0-0.1,0-0.1C12.1,26.5,12.3,26.4,12.6,26.6z"/>
	<path class="st149" d="M24.2,20.4c0.1,0.1,0.3,0.1,0.4,0.2c0.1,0.2-0.1,0.2-0.2,0.2c-1.1,0.3-2,1-3,1.4c0,0,0-0.1-0.1-0.1
		c0.1-0.4,0.4-0.6,0.5-0.9c0.1-0.1,0.2-0.2,0.3-0.3c0.6-0.3,1.2-0.6,1.9-0.5C24.1,20.4,24.2,20.4,24.2,20.4z"/>
	<path class="st150" d="M25.4,19.6c0.2,0.1,0.2,0.4,0.2,0.6c-0.4,0-0.8,0-1.2,0c-0.1,0-0.1-0.1-0.1-0.2c0.1-0.2,0.2-0.4,0.3-0.7
		c0-0.1,0.1-0.1,0.2-0.2C25.2,19.1,25.2,19.4,25.4,19.6z"/>
	<path class="st149" d="M20.4,22.8c-0.1,0-0.1,0-0.2,0c-0.4,0.2-0.6,0-0.6-0.3c0-0.4,0.3-0.4,0.6-0.4c0.4,0,0.8-0.2,1.2,0.1l0,0
		C21.2,22.6,20.7,22.5,20.4,22.8z"/>
	<path class="st149" d="M24.4,20c0,0.1,0,0.1,0,0.2c-0.1,0.1-0.2,0.1-0.2,0.2l0,0c-0.2,0-0.6,0.2-0.7-0.2c-0.1-0.3,0.2-0.4,0.4-0.4
		C24.2,19.8,24.3,19.9,24.4,20z"/>
	<path class="st151" d="M6.3,30.6c-0.1,0-0.2,0-0.4,0c-0.1-0.2-0.5-0.2-0.4-0.6c0.2-0.3,0.5-0.5,0.8-0.8c0.8-0.4,1.4-1.2,2.3-1.6
		c0.1,0,0.3,0,0.4,0c0.3,0.1,0.6,0.1,0.6,0.5c-0.8,0.7-1.7,1.1-2.6,1.6C6.8,30,6.4,30.1,6.3,30.6z"/>
	<path class="st152" d="M9.6,28.2c-0.2-0.1-0.4-0.3-0.7-0.4c0.5-0.6,1.2-1,1.9-1.3c0.4,0,0.7,0,0.8,0.5c-0.6,0.4-1.1,0.8-1.7,1.2
		C9.8,28.2,9.7,28.2,9.6,28.2z"/>
	<path class="st153" d="M20.2,22.4c-0.2,0-0.4-0.2-0.5,0.1c-0.1,0.3,0.3,0.3,0.5,0.3c-0.1,0.1-0.1,0.2-0.2,0.3
		c-0.4,0.1-0.7-0.2-1-0.3c0-0.1,0-0.1,0-0.2c0.2-0.8,0.7-1.1,1.5-1.1C20.8,22,20.4,22.1,20.2,22.4z"/>
	<path class="st154" d="M24,20c-0.1,0-0.3,0.1-0.3,0.1c0,0.3,0.4,0.1,0.5,0.3c-0.7,0.2-1.3,0.4-2,0.6c-0.1-0.2,0.1-0.3,0.2-0.4
		s0.1-0.1,0.2-0.2c0-0.2,0.3-0.3,0.1-0.5c-0.1-0.1-0.3-0.3-0.3-0.5c0-0.1,0-0.1,0-0.2c0.1,0,0.1,0,0.2,0C23.2,19.2,23.8,19.3,24,20z
		"/>
	<path class="st155" d="M24,20c-0.5-0.3-0.9-0.5-1.4-0.8C22.7,19,22.8,19,23,19c0.6,0.1,1.3,0,1.8,0.4c0,0.3-0.1,0.5-0.4,0.6
		C24.3,20,24.1,20,24,20z"/>
	<path class="st156" d="M24.8,19.4c-0.6,0-1.3,0.2-1.8-0.4c0.2-0.3,0.5-0.2,0.8-0.2c0.1,0,0.1,0,0.2,0c0.1,0.1,0.3,0,0.4,0.1
		s0.3,0.1,0.4,0.3C24.8,19.3,24.8,19.3,24.8,19.4z"/>
	<path class="st157" d="M11.6,27c-0.2-0.2-0.5-0.3-0.8-0.4c-0.5,0-0.9-0.3-1.3-0.6c-0.2-0.1-0.3-0.2-0.4-0.3
		c-0.1-0.1-0.2-0.2-0.2-0.4c0-0.2,0.2-0.2,0.3-0.3c0.4,0,0.6,0.2,0.9,0.4c0.6,0.5,1.5,0.5,1.9,1.4c0,0.1,0,0.1,0,0.2
		C11.9,27,11.8,27,11.6,27z"/>
	<path class="st158" d="M2.6,30.8c0-0.1,0-0.1,0-0.2c0-0.3-0.3-0.4-0.4-0.6c0.1-0.6,0.6-0.9,0.8-1.4c0.1-0.1,0.1-0.1,0.2-0.1
		c0.1,0,0.2,0.1,0.2,0.2c0.2,0.3,0.6,0.6,0.7,1c-0.2,0.6-0.6,1.1-1.3,1.1C2.7,30.8,2.7,30.8,2.6,30.8z"/>
	<path class="st159" d="M2.8,30.8c0.5-0.3,0.9-0.7,1.2-1.2c0.1-0.1,0.1-0.1,0.2-0.1c0.2,0,0.3,0.1,0.5,0.2C4.8,29.8,5,30,5,30.2
		c-0.8-0.1-0.8,1-1.5,1C3.2,31.2,3,31,2.8,30.8z"/>
	<path class="st160" d="M24.4,19c-0.2,0-0.3,0-0.4-0.2c0.2-0.2,0.4-0.5,0.8-0.4c0.1,0.1,0.1,0.3,0.2,0.4
		C24.9,19.3,24.6,19.1,24.4,19z"/>
	<path class="st161" d="M5,30.2c-0.1-0.1-0.3-0.3-0.4-0.4c0-0.1,0.1-0.1,0.2-0.2c0.1,0,0.2,0,0.2,0c0.2,0,0.3,0.1,0.5,0.2
		c0.1,0,0.1,0.1,0.2,0.2c0,0.2,0.3,0.3,0.3,0.6c-0.1,0-0.1,0-0.2,0C5.5,30.5,5.3,30.3,5,30.2z"/>
	<path class="st162" d="M24.4,19c0.2,0,0.5,0,0.6-0.2c0.1,0.1,0.3,0.3,0.4,0.4c0,0.1,0,0.3,0,0.4c-0.2-0.1-0.4-0.3-0.6-0.4
		C24.6,19.2,24.5,19.2,24.4,19z"/>
	<path class="st108" d="M14,5c0-0.3,0-0.5,0-0.8c0.4,0.5,0.2,1.3,0.6,1.8c0.1,0.5,0.3,0.9,0.4,1.4c-0.3,0.2-0.2,0.5-0.2,0.8
		c0,0.9,0.4,1.9-0.2,2.8c-0.3-0.2-0.3-0.4-0.3-0.7c0.1-1.7-0.3-3.4-0.4-5.1C13.9,5.2,14,5.1,14,5z"/>
	<path class="st163" d="M18.4,12c-0.1,0.6,0.1,1.1,0.4,1.6c0.5,0.7,0.9-0.3,1.4,0c0.1,0.3-0.2,0.4-0.3,0.5c-0.5,0.3-1,0.7-1,1.3
		C18.7,15.8,18.4,16,18,16c-0.2,0-0.3-0.1-0.3-0.3c0.1-1.2,0.1-1.3-1.3-1.1c-0.4-0.1-0.7-0.4-0.8-0.8c0.5-0.8,1.3-1.3,2-1.8
		C17.8,11.9,18.1,11.8,18.4,12z"/>
	<path class="st164" d="M18.4,12c-1.2,0.3-1.7,1.5-2.8,2c-0.1,0.1-0.2,0.1-0.3,0s-0.2-0.2-0.3-0.3c-0.1-0.9-0.2-1.8,0.9-2.2
		c0.5-0.2,0.3-0.6,0.4-0.9c0.7-0.6,1.1,0.2,1.5,0.4c0.4,0.3,0.8,0.7,1.3,0.8C19,12.1,18.7,12,18.4,12z"/>
	<path class="st165" d="M19.8,14c0.1-0.1,0.3-0.3,0.4-0.4c0.1,0,0.1,0,0.2,0c0.3,0.8-0.3,0.9-0.8,1l-0.1-0.1
		C19.4,14.2,19.6,14.1,19.8,14z"/>
	<path class="st166" d="M16.4,10.6c0.1,0.4,0.6,0.8-0.1,1c-1.2,0.3-1.1,1.3-1.1,2.2c-0.4,0.1-0.6-0.2-0.7-0.5c0-0.2,0.1-0.4,0.1-0.5
		c0.1-0.2,0.1-0.3,0.2-0.5c0.1-0.2,0.1-0.5,0.3-0.7c0.4-0.3,0.7-0.7,1.1-1C16.3,10.6,16.3,10.6,16.4,10.6z"/>
	<path class="st167" d="M16.2,10.6c-0.1,0.6-0.4,0.9-1,1c-0.1-0.1-0.1-0.2-0.1-0.3c0-0.3,0.1-0.6,0.3-0.8s0.4-0.3,0.6-0.1
		C16.1,10.5,16.1,10.5,16.2,10.6z"/>
	<path class="st166" d="M16,10.4c-0.2,0.1-0.4,0.1-0.6,0.2c-0.1-0.1-0.1-0.2-0.1-0.3c0-0.4-0.1-0.8,0.1-1.1c0.2,0,0.3,0,0.4,0.2
		C15.9,9.7,15.9,10.1,16,10.4z"/>
	<path class="st168" d="M22,9c-0.1,0.9,0.2,1.8,0.6,2.6c-0.5-0.3-0.8-0.8-0.8-1.4C21.8,9.8,21.4,9.3,22,9z"/>
	<path class="st169" d="M22,9c-0.4,0.4-0.1,0.8-0.2,1.2c-0.3-0.5-0.3-1,0-1.4c0.1-0.2,0.4-0.7,0.7,0C22.2,8.8,22.1,8.8,22,9z"/>
	<path class="st165" d="M20,14.8c-0.2,0.4-0.5,0.4-0.8,0.4c-0.2-0.4,0-0.6,0.4-0.6l0,0C19.7,14.8,19.9,14.8,20,14.8z"/>
	<path class="st170" d="M15.4,9.2c0,0.4,0,0.8,0,1.2c-0.1,0.1-0.1,0.1-0.2,0c0-0.5,0-0.9,0-1.4C15.3,9.1,15.3,9.1,15.4,9.2z"/>
	<path class="st171" d="M14.6,11c0.4-0.9,0.1-1.9,0.2-2.8c0.1,0,0.1,0,0.2,0c0,0.8,0,1.6,0,2.4c0.1,0.2,0.2,0.4,0,0.6
		c-0.1,0.1-0.3,0.1-0.4,0.1C14.6,11.2,14.5,11.1,14.6,11z"/>
	<path class="st172" d="M15,11.2c0-0.2,0-0.4,0-0.6c0.1,0,0.1,0,0.2,0c0.2,0.3,0.1,0.5,0,0.8c0,0.1,0,0.1,0,0.2
		c0,0.3,0.1,0.6-0.2,0.8c-0.2-0.2-0.2-0.4-0.2-0.6C14.8,11.6,14.8,11.4,15,11.2z"/>
	<path class="st173" d="M15.2,11.4c0-0.3,0-0.5,0-0.8c0-0.1,0-0.1,0-0.2c0.1,0,0.1,0,0.2,0c0,0.1,0,0.1,0,0.2
		C15.4,10.9,15.5,11.2,15.2,11.4z"/>
	<path class="st174" d="M4.4,19.6c0.1-0.1,0.4-0.1,0.4-0.2c0.6-1.4,1.4-2.7,1.8-4.2c0.4,0,0.4,0.3,0.5,0.6c0.1,0.4,0,0.8-0.2,1.2
		c-0.4,0.9-1,1.7-1.3,2.7c-0.1,0.4-0.4,0.7-0.8,0.8c-0.2,0-0.4-0.1-0.5-0.3C4.2,20,4.2,19.8,4.4,19.6z"/>
	<path class="st175" d="M6,14.2c0-0.1,0-0.3,0-0.4h0.1c0.2-0.3,0.3-0.7,0.4-1c0-0.1,0-0.3,0-0.4c0.1-0.2,0.2-0.3,0.5-0.3
		c0.4,0.1,0.6,0.3,0.6,0.7c-0.1,0.9-0.3,1.7-1.1,2.2C6.4,14.7,6.2,14.4,6,14.2z"/>
	<path class="st176" d="M6.6,15c0.3-0.7,0.9-1.4,1-2.2c0.1,0,0.3,0,0.4,0.1c0,0.1,0.1,0.2,0.1,0.4c0,0.1,0.1,0.3,0.1,0.4
		c0,0.2,0,0.4-0.1,0.5c-0.2,0.3-0.5,0.6-0.6,1c-0.1,0.2-0.2,0.5-0.5,0.6H6.9c0-0.2-0.2-0.5-0.4-0.6C6.6,15.1,6.6,15.1,6.6,15z"/>
	<path class="st177" d="M4.4,19.6c0,0.2,0,0.4,0,0.6c-0.1,0.1-0.2,0.1-0.3,0C4,20.1,3.8,19.9,4,19.6h0.1C4.2,19.6,4.3,19.6,4.4,19.6
		z"/>
	<path class="st178" d="M4.6,5.4c-0.1,0-0.3,0.1-0.4,0.2c-0.3,0-0.6-0.2-0.8-0.4C3.8,5.2,4.3,4.5,4.6,5.4z"/>
	<path class="st179" d="M2.4,27.4c-0.5-0.3-0.6-0.7-0.6-1.2c0.6-1.1,0.9-2.4,1.6-3.4c0.1-0.1,0.2-0.1,0.2,0C3.9,23,4,23.3,4.1,23.6
		c0,0.1,0,0.2,0,0.3C4,24.2,3.9,24.6,3.7,25c-0.2,0.3-0.5,0.6-0.4,1.1C3.1,26.6,2.7,27,2.4,27.4z"/>
	<path class="st180" d="M4,19.6c0.1,0.2,0.2,0.4,0.3,0.6c0.1,0.1,0.1,0.2,0.1,0.3c-0.3,0.7-0.3,1.5-0.9,2c-0.1-0.2-0.1-0.3-0.2-0.5
		c0.1-0.4,0.2-0.8,0.2-1.2C3.8,20.5,3.9,20,4,19.6C3.9,19.6,3.9,19.6,4,19.6z"/>
	<path class="st181" d="M3.4,22.5c0.2-0.7,0.4-1.4,0.8-2.1c0.2,0.1,0.3,0.2,0.3,0.5c-0.1,0.8-0.3,1.5-0.9,2c-0.1,0-0.1,0-0.2-0.1
		C3.4,22.7,3.4,22.6,3.4,22.5z"/>
	<path class="st182" d="M7,12.2c-0.1,0.1-0.3,0.1-0.4,0.2c0.1-0.4,0.1-0.8,0.2-1.2c0.1-0.1,0.1-0.1,0.2,0l0,0
		c0.2,0.2,0.3,0.4,0.3,0.7C7.3,12.1,7.1,12.1,7,12.2z"/>
	<path class="st183" d="M7,11.2c-0.1,0-0.1,0-0.2,0s-0.1,0-0.2,0c0-0.4,0.2-0.7,0.4-1C7,10.5,7,10.9,7,11.2z"/>
	<path class="st184" d="M6.6,12.8c0,0.4,0,0.8-0.4,1C6.2,13.4,6.3,13.1,6.6,12.8z"/>
	<path class="st185" d="M3,28.6c0.1,0.7-0.6,0.9-0.8,1.4c0.1,0.2,0,0.2-0.1,0.2C1.9,30.1,1.8,30,1.7,30c-0.2-0.5-0.9-0.8-0.9-1.5
		c0-0.1,0-0.3,0-0.4c0.1,0,0.1,0,0.2,0c0.2,0.2,0.4,0.4,0.5,0c0.1-0.2,0.1-0.4,0.4-0.4C2.1,27.8,2.3,28,2.6,28h0.1
		C2.9,28.2,3.1,28.3,3,28.6z"/>
	<path class="st186" d="M2.4,27.4C2.3,26.7,3,26.5,3.2,26c-0.1-0.2,0-0.4,0.1-0.5c0.4-0.2,0.5-0.8,1.1-0.8c0.2,0,0.4,0.1,0.4,0.4
		C4.5,26.2,3.6,27,3,28c0,0.1-0.2,0.2-0.4,0l0,0C2.5,27.8,2.5,27.6,2.4,27.4z"/>
	<path class="st187" d="M2,27.6c-0.3,0.3-0.2,0.8-0.6,1.1C1.1,28.5,1,28.3,1,28c0.2-0.4,0.4-0.8,0.6-1.2C1.7,27.1,1.9,27.3,2,27.6z"
		/>
	<path class="st144" d="M11.4,9.4c0.6,0.4,0.8-0.1,1-0.5c0.3-0.5,0.4-1.1,1-1.4c0.2,0.3,0.1,0.7,0.1,1.1c-0.1,0.1-0.1,0.2-0.2,0.3
		c-0.2,0.3-0.3,0.6-0.5,0.9c-0.2,0.2-0.3,0.4-0.5,0.7c-0.2,0.2-0.5,0.2-0.8,0.1c-0.3-0.2-0.4-0.4-0.4-0.7
		C11.2,9.6,11.3,9.5,11.4,9.4z"/>
	<path class="st188" d="M13.8,7.2c0-0.1,0-0.3,0-0.4c0.3,0,0.3,0.1,0.3,0.3c0.2,1.2,0.1,2.5,0.1,3.8c0,0.5,0,0.9-0.4,1.3
		c-0.8-0.2-0.4-0.8-0.5-1.3c0.2-0.4,0.1-0.9,0.4-1.3C13.8,8.8,13.8,8,13.8,7.2z"/>
	<path class="st189" d="M11.4,9.4c0,0.1,0,0.3,0,0.4c-0.2,0.1-0.4,0-0.5-0.2c-0.1-0.1-0.2-0.3-0.3-0.5c0-0.2-0.1-0.5-0.1-0.7
		c0-0.4-0.2-0.8-0.1-1.1c0.1-0.2,0.2-0.3,0.3-0.5c0.1,0,0.1,0,0.2,0c0.2-0.2,0.4-0.2,0.6,0C10.6,7.6,11.2,8.5,11.4,9.4z"/>
	<path class="st190" d="M11.6,6.8c-0.2,0-0.4,0-0.6,0c-0.1-0.3-0.4-0.7,0.2-0.8C11.5,6.2,11.6,6.4,11.6,6.8z"/>
	<path class="st191" d="M13.4,8.8c0.1-0.1,0.1-0.1,0.2-0.2c0,0.3,0,0.7,0.1,1c0,0-0.1,0-0.1,0.1C12.9,9.5,13.2,9.1,13.4,8.8z"/>
	<path class="st192" d="M13.8,9.6c0,0.4,0.2,0.9-0.2,1.2c-0.2-0.1-0.2-0.3-0.2-0.4c0-0.3,0-0.6,0.2-0.8H13.8
		C13.7,9.6,13.7,9.6,13.8,9.6z"/>
	<path class="st193" d="M7.2,12C7.1,11.7,7,11.5,7,11.2c0.9-0.8,0.9-2,1.4-2.9C8.6,8,8.5,7.6,8.8,7.4c0.5,0.5,1.3,0.7,1.3,1.6
		c0,0.1-0.1,0.2-0.3,0.3C9.4,9.3,9.2,9.6,9,10c-0.4,0.8-0.6,1.7-1.2,2.4C7.5,12.5,7.4,12.2,7.2,12z"/>
	<path class="st194" d="M10,9C9.9,8.3,9.1,8,8.8,7.4c0-0.1,0-0.1,0-0.2c0.3,0.2,0.5,0.4,0.8,0.6c0.1,0,0.2,0.1,0.3,0.2
		c0.2,0.3,0.5,0.5,0.6,0.9c0,0.1-0.1,0.2-0.3,0.3C10.1,9.1,10.1,9.1,10,9z"/>
	<path class="st195" d="M14,7c-0.1-0.1-0.1-0.1-0.2-0.2c0-0.4,0-0.8,0-1.2c-0.1-0.3-0.1-0.7-0.2-1C13.7,4.7,13.9,4.9,14,5
		c0.4,2,0.7,4,0.6,6c0,0.1,0,0.1,0,0.2c0.3,0.6,0.2,1.2,0.1,1.7c-0.4,0.2-0.5-0.1-0.7-0.4C14.1,10.7,14.2,8.9,14,7z"/>
	<path class="st196" d="M9.8,8C9.7,7.9,9.7,7.9,9.6,7.8c0-0.1,0-0.3,0-0.4C9.7,7.2,9.7,6.8,10,6.7c0.1,0,0.2,0,0.3,0
		c0.2,0.1,0.4,0.2,0.3,0.5c0.1,0.4,0.1,0.8,0.2,1.2C10.4,8.5,10.2,8,9.8,8z"/>
	<path class="st197" d="M10,6.8C9.9,7,9.7,7.2,9.6,7.4C9.5,7.1,9.3,6.9,9.2,6.6C9.6,6.1,9.9,6.2,10,6.8z"/>
	<path class="st198" d="M10,6.8C9.8,6.6,9.5,6.3,9.2,6.6C9.1,6.5,9.1,6.5,9,6.4C9.3,5.9,9.6,6,10,6.2c0.1,0,0.1,0,0.2,0
		c0,0.1,0,0.1,0,0.2c0.1,0.1,0.1,0.3,0,0.4C10.1,6.8,10.1,6.8,10,6.8z"/>
	<path class="st199" d="M10,6.2c-0.3,0-0.7,0-1,0.2C9,6.2,9,6,9,5.8c0.1,0,0.1,0,0.2,0C9.5,5.8,9.9,5.8,10,6.2z"/>
	<path class="st104" d="M10.2,6.8c0-0.1,0-0.3,0-0.4c0.2,0.1,0.4,0.3,0.6,0.4c0,0.2,0,0.3-0.2,0.4C10.5,7,10.4,6.9,10.2,6.8z"/>
	<path class="st200" d="M19.6,14.6c-0.3,0.1-0.4,0.3-0.4,0.6c-0.1,0.1-0.1,0.1-0.2,0.2c-0.1,0.1-0.1,0.1-0.2,0
		c-0.3-0.9,0.5-1.1,1-1.4C19.7,14.2,19.7,14.4,19.6,14.6z"/>
	<path class="st201" d="M18.8,15.4c0.1,0,0.1,0,0.2,0c0,0.1,0,0.3,0,0.4c-0.2,0.2-0.4,0.4-0.6,0.6c-0.2,0.1-0.3,0-0.5-0.2
		c0-0.1,0-0.2,0.1-0.2C18.3,15.8,18.5,15.6,18.8,15.4z"/>
	<path class="st202" d="M2.1,30.2c0-0.1,0.1-0.1,0.1-0.2c0.2,0.2,0.6,0.2,0.4,0.6C2.4,30.5,2.2,30.4,2.1,30.2z"/>
	<path class="st203" d="M18,16.2c0.1,0.1,0.2,0.1,0.4,0.2c0,0.1,0,0.1,0,0.2c-0.2,1.8-1.7,2.6-2.8,3.7c-0.5-0.1-0.9-0.3-1.1-0.8
		c0.2-1,1.1-1.4,1.7-2.1c0.3-0.4,0.8-0.7,0.3-1.2c-0.1-0.1-0.2-0.3-0.2-0.5s0.1-0.3,0.4-0.4c0.1,0,0.2,0,0.3,0.1
		C17.4,15.5,17.6,16,18,16.2z"/>
	<path class="st204" d="M15.6,20.2c0.9-1.2,2.3-2,2.8-3.6c0.1,0.1,0.3,0.2,0.4,0.4c0.1,0.2,0.1,0.3,0.2,0.5c0.2,0.9,0,1.5-0.8,2
		c-0.6,0.4-1,1-1.4,1.7C16.2,21,15.7,20.9,15.6,20.2z"/>
	<path class="st205" d="M16.8,21c-0.3-1,0.7-1.3,1.1-1.6c0.8-0.5,1.1-1.1,1.1-2c0.1,0.1,0.3,0.2,0.4,0.2c0,0.1-0.1,0.2-0.1,0.3
		c0.5,0.7,0.6,1.3-0.1,1.9c-0.1,0.1-0.2,0.3,0,0.5c0.5-0.1,1-0.6,1.6-0.7c0.1,0.2,0,0.4-0.2,0.5c-1,0.5-1.8,1.3-2.9,1.6
		C17.3,21.7,16.8,21.6,16.8,21z"/>
	<path class="st206" d="M20.6,20c0.1-0.1,0.1-0.3,0.2-0.4c0.3,0,0.5,0,0.8,0c-0.1,0.4,0.8,0.5,0.4,1c-0.1,0.4-0.5,0.5-0.7,0.7
		c-0.2,0.1-0.4,0.3-0.7,0.3c-0.7,0.2-1.2,0.5-1.6,1.1l0,0c-0.1-0.1-0.1-0.2-0.1-0.3c0.1-0.6,0.7-0.8,1.1-1.1
		c0.4-0.3,0.9-0.5,1.3-0.9c-0.3,0.3-0.7,0.6-1,0.3C19.9,20.4,20.4,20.2,20.6,20z"/>
	<path class="st207" d="M21.2,21.2c0.2-0.3,0.5-0.4,0.8-0.6c0.1,0,0.3,0,0.4,0c-0.1,0.1-0.1,0.3-0.2,0.4s-0.1,0.1-0.2,0.2
		C21.7,21.4,21.4,21.5,21.2,21.2z"/>
	<path class="st207" d="M22.8,19.8c0.1,0.1,0.3,0.2,0.4,0.3c-0.2,0.1-0.4,0.2-0.6,0.3c-0.1-0.2-0.3-0.4-0.4-0.6
		C22.4,19.6,22.6,19.7,22.8,19.8z"/>
	<path class="st208" d="M22.8,19.8c-0.2,0-0.4,0-0.6,0C22,19.7,22,19.4,22,19.2c0.1,0.1,0.3,0.1,0.4,0.2
		C22.5,19.5,22.7,19.7,22.8,19.8z"/>
	<path class="st209" d="M12,26.8c-0.7-0.4-1.3-0.8-2-1.2c0.1-0.7,0.6-1,1.1-1.4c0.6-0.2,0.9-0.7,1.3-1.1c0.4-0.3,0.7-0.7,1.2-0.8
		c0.1,0,0.2,0,0.3,0c0.2,0,0.3,0.1,0.5,0.2s0.3,0.2,0.5,0.3c0.1,0,0.2,0.1,0.2,0.1c0.3,0.2,0.6,0.3,0.9,0.6c0.1,0.1,0.2,0.2,0.2,0.4
		c-0.1,0.5-0.6,0.5-0.9,0.8c-0.9,0.8-2,1.1-2.9,1.9C12.4,26.7,12.2,26.7,12,26.8z"/>
	<path class="st210" d="M15.4,24.6c0.1-0.4,0.7-0.4,0.8-0.8c0.1-0.1,0.3-0.1,0.4,0.1c0,0.1,0,0.1,0.1,0.1
		C16.2,24.2,15.9,24.6,15.4,24.6z"/>
	<path class="st211" d="M19,22.4c0,0.1,0,0.1,0,0.2c-0.2,0-0.3,0-0.5,0c-0.1,0-0.3,0-0.4,0c-0.5-0.1-0.8-0.4-1.2-0.7
		c-0.2-0.1-0.3-0.3-0.4-0.4s-0.2-0.1-0.3-0.2c-0.1-0.1-0.2-0.1-0.3-0.2c-0.1-0.1-0.2-0.2-0.4-0.2c-0.1-0.1-0.3-0.2-0.4-0.2
		c-0.1-0.1-0.2-0.2-0.3-0.3c-0.1-0.1-0.2-0.1-0.3-0.2s-0.3-0.2-0.4-0.3c-0.1-0.1-0.2-0.2-0.2-0.2c-0.1-0.1-0.2-0.2-0.3-0.2
		c-0.1-0.1-0.4-0.2-0.2-0.5c0.1-0.1,0.2-0.1,0.4-0.1s0.4,0.1,0.6,0.2c0.1,0.1,0.2,0.2,0.2,0.3c0.2,0.4,0.7,0.5,1,0.8
		s0.8,0.6,1.2,0.8c0.3,0.3,0.6,0.6,1,0.6C18.4,21.6,18.7,21.9,19,22.4z"/>
	<path class="st212" d="M18.2,22.4c0.1,0.1,0.2,0.1,0.3,0.2c-0.5,0.6-1.2,0.8-1.9,1.3c-0.1,0-0.3,0-0.4-0.1s-0.1-0.1-0.2-0.2
		C16.7,23.2,17.4,22.6,18.2,22.4z"/>
	<path class="st213" d="M21.2,21.2c0.3,0,0.6,0,0.8,0c0,0.5-0.4,0.6-0.6,1c-0.4,0.1-0.8,0.1-1.2,0.2c0-0.3,0.3-0.5,0.4-0.8
		C20.7,21.3,20.9,21.2,21.2,21.2z"/>
	<path class="st214" d="M9.6,25.9c0.4,0.2,0.8,0.5,1.2,0.7c-0.6,0.4-1.1,1-1.8,1.2c-0.1,0-0.2,0-0.3,0c-0.3-0.1-0.6-0.1-0.7-0.4
		c0-0.1,0-0.2,0-0.3C8.4,26.6,8.9,26.1,9.6,25.9z"/>
	<path class="st215" d="M8,27.4c0.2,0.1,0.4,0.2,0.7,0.4c-0.7,0.5-1.4,1.3-2.2,1.6c-0.2-0.2-0.2-0.4-0.2-0.6
		C6.6,28.1,6.9,27.3,8,27.4z"/>
	<path class="st216" d="M6.4,28.8c0,0.2,0,0.4,0,0.6C6.1,29.6,6,30,5.6,30c-0.1,0-0.1,0-0.2,0C5.2,29.1,5.5,28.8,6.4,28.8z"/>
	<path class="st217" d="M11.2,24.4c-0.5,0.3-0.8,0.8-1.2,1.2c-0.3-0.1-0.5-0.3-0.8-0.4S8.5,25,8.5,24.6c0.9-1.2,2-2.3,3.1-3.4
		c0.1,0,0.1-0.1,0.2-0.1c0.2,0,0.4,0.1,0.6,0c0.1,0,0.2,0,0.2,0.1c0.1,0,0.1,0.1,0.2,0.2c0.2,0.2,0.4,0.3,0.6,0.4
		c0,0.1,0.1,0.2,0.1,0.3c0,0.1,0,0.2-0.1,0.3C12.7,22.9,12,23.8,11.2,24.4z"/>
	<path class="st218" d="M9.6,25.9c-0.4,0.6-1,1-1.7,1.4c-0.1,0.1-0.3,0.1-0.4,0c0-0.1,0-0.2,0-0.3c0.5-0.5,0.8-1.2,1.6-1.3
		C9.3,25.7,9.5,25.8,9.6,25.9z"/>
	<path class="st219" d="M9.2,25.6c-0.5,0.5-1.1,0.9-1.6,1.4c-0.1,0-0.2,0-0.2-0.1c0-0.9,0.7-1.2,1.4-1.6c0.1,0,0.2,0,0.3,0
		C9.1,25.5,9.1,25.5,9.2,25.6z"/>
	<path class="st220" d="M9,25.4c-0.1,0-0.1,0-0.2,0c-0.2,0-0.4-0.1-0.6-0.2C8,25.1,7.8,25,7.7,24.8c-0.1-0.1-0.1-0.3,0-0.4
		s0.2-0.2,0.3-0.3c0.3,0,0.5,0.2,0.6,0.5C8.8,24.8,9,25,9.2,25.2C9.1,25.2,9.1,25.3,9,25.4z"/>
	<path class="st221" d="M2.6,28c0.7-0.5,1.1-1.3,1.5-2c0.2-0.3,0.5-0.7,0.7-1.1c0.1,0,0.2,0,0.2,0c0.2,0,0.3,0.1,0.5,0.3
		c0,0.1,0.1,0.2,0.1,0.3c0,0.1,0,0.2,0,0.3c-0.7,1.1-1.2,2.2-2.4,2.9c-0.1,0-0.1,0-0.2,0C2.9,28.4,2.7,28.2,2.6,28z"/>
	<path class="st222" d="M3.2,28.6c0.8-1,1.7-1.9,2.2-3c0.1-0.1,0.2-0.1,0.2-0.1c0.1,0,0.2,0,0.3,0.1C6,25.7,6.1,25.8,6.1,26
		c0,0.7-0.4,1.2-0.8,1.6c-0.5,0.4-0.9,1-1.5,1.4c-0.2,0-0.4,0-0.5-0.2C3.2,28.7,3.2,28.7,3.2,28.6z"/>
	<path class="st223" d="M3.2,28.8c0.2,0,0.4,0,0.5,0c0.1,0.1,0.2,0.1,0.3,0.1c0.1,0.1,0.2,0.2,0.2,0.3c0,0.1,0,0.1,0,0.2
		s-0.1,0.1-0.1,0.2c-0.1,0-0.1,0-0.2,0C3.7,29.4,3.4,29.1,3.2,28.8z"/>
	<path class="st224" d="M4.2,29.6c0-0.1,0-0.1,0-0.2c0.1-0.1,0.3-0.1,0.4-0.1c0.2,0.1,0.3,0.3,0.2,0.5c-0.1,0-0.2,0-0.3,0
		C4.4,29.7,4.3,29.7,4.2,29.6z"/>
	<path class="st225" d="M4.8,29.8c-0.1-0.1-0.2-0.3-0.2-0.4c0.6-1.1,1.6-1.7,2.4-2.6c0.2-0.1,0.3,0,0.5,0.2c0.1,0,0.1,0,0.2,0
		c0,0.1,0,0.1,0.1,0.2c-0.7,1.1-1.9,1.6-2.6,2.6L4.8,29.8C4.9,29.8,4.8,29.8,4.8,29.8z"/>
	<path class="st226" d="M5,29.8c0.6-1.2,1.8-1.7,2.6-2.6c0.1,0,0.2,0,0.3,0.1c0,0.1,0,0.1,0.1,0.2c-0.7,0.2-1.1,0.9-1.6,1.4
		c-0.6,0.2-1,0.5-1,1.2C5.3,29.9,5.1,29.9,5,29.8z"/>
	<path class="st227" d="M16.4,14.6c0.4,0,0.8-0.6,1.2-0.3c0.4,0.4,0.9,0.9,0.2,1.5c-0.4,0.1-0.6-0.4-1-0.4l0,0
		c-0.1-0.2-0.4-0.2-0.5-0.4C16.3,14.8,16.3,14.7,16.4,14.6z"/>
	<path class="st228" d="M16.8,15.4c0.5-0.3,0.7,0.3,1,0.4c0.1,0.1,0.1,0.1,0.2,0.2c0,0.1,0,0.1,0,0.2C17.4,16.2,17.2,15.8,16.8,15.4
		z"/>
	<path class="st229" d="M16.4,14.6c0,0.1,0,0.3,0,0.4c-0.4,0.1-0.7-0.2-0.9-0.5c-0.1-0.2-0.2-0.3-0.1-0.5c0.1,0,0.1,0,0.2,0
		C15.9,14.2,16.1,14.4,16.4,14.6z"/>
	<path class="st230" d="M15.4,14c0.1,0.1,0.1,0.3,0.2,0.4c-0.1,0.1-0.1,0.2-0.3,0.3c-0.3,0-0.5-0.2-0.7-0.4
		c-0.3-0.3-0.6-0.6-0.9-0.9c-0.3-0.3-0.7-0.7-1-1c-0.2-0.3-0.6-0.5-0.5-0.9c0.1-0.2,0.3-0.3,0.6-0.3c0.1,0,0.2,0.1,0.2,0.1
		c0.3,0.3,0.3,1,0.9,1c0.2,0,0.3,0.2,0.3,0.4c0.1,0.1,0.3,0.2,0.4,0.4c0.1,0,0.1,0,0.1,0.1c0,0,0,0.1-0.1,0.1
		c0.1,0.3,0.3,0.5,0.6,0.6C15.3,13.9,15.3,13.9,15.4,14z"/>
	<path class="st231" d="M14.6,13.2v-0.1c0-0.6,0-1.2,0-1.8c0.1,0,0.3,0,0.4,0c0,0.2,0,0.4,0,0.6c-0.2,0.3,0,0.7-0.2,1
		C14.8,13,14.8,13.1,14.6,13.2z"/>
	<path class="st232" d="M14.8,12.8c0-0.4-0.1-0.7,0.2-1c0,0.2,0,0.4,0,0.6C14.9,12.5,14.9,12.7,14.8,12.8z"/>
	<path class="st233" d="M4.8,20.4C5.7,19,6.6,17.5,7,15.8h0.1c0.4,0.2,0.7,0.4,0.7,0.9c-0.3,1.3-1,2.5-1.6,3.7
		C6,20.7,5.8,21,5.4,21.1c-0.2,0-0.4-0.1-0.5-0.2C4.7,20.7,4.7,20.5,4.8,20.4z"/>
	<path class="st234" d="M4.8,20.4c0,0.1,0,0.2,0,0.4c0.1,0.1,0.1,0.3,0,0.4c-0.3,0.1-0.5-0.1-0.4-0.4c-0.1-0.1-0.1-0.3-0.2-0.4
		c0-0.1,0-0.1,0-0.2c0.1,0,0.1,0,0.2,0C4.5,20.3,4.7,20.3,4.8,20.4z"/>
	<path class="st235" d="M7.2,12c0.3,0,0.4,0.3,0.6,0.4c0.1,0.1,0.2,0.2,0.1,0.4c0,0.1-0.1,0.2-0.1,0.2c-0.1-0.1-0.2-0.1-0.2-0.2
		c-0.1-0.3-0.3-0.5-0.5-0.6C7.1,12.1,7.1,12,7.2,12z"/>
	<path class="st236" d="M7.5,16.6C7.3,16.3,7.1,16,7,15.8c0.1-0.2,0.3-0.4,0.4-0.6c0.2-0.3,0.4-0.7,0.6-1c0-0.2,0-0.4,0-0.6
		c0.6,0.1,0.7,0.8,1.1,1.1c0.2,0.2,0.3,0.3,0.4,0.5c0,0.3,0.2,0.6,0.2,0.9c-0.3,0.6-0.6,1.1-1.3,1.5c-0.2,0-0.4-0.1-0.5-0.2
		C7.7,17.1,7.5,16.9,7.5,16.6z"/>
	<path class="st237" d="M7.8,13c0-0.1,0-0.2,0-0.2c0.4-0.9,0.8-1.8,1.3-2.6C9.3,9.8,9.5,9.4,10,9.5c0.2,0,0.4,0.1,0.5,0.3
		c-0.4,1.3-1,2.5-2,3.5c-0.2,0-0.3,0-0.4-0.1C7.9,13.1,7.9,13.1,7.8,13z"/>
	<path class="st238" d="M8,13.2c0.1,0,0.3,0,0.4,0c0.3,0.1,0.4,0.3,0.5,0.5c0.2,0.2,0.4,0.4,0.4,0.7c0,0.2-0.1,0.3-0.3,0.4
		c-0.3-0.4-0.7-0.8-1-1.2C8,13.4,8,13.3,8,13.2z"/>
	<path class="st239" d="M8,14.2c0,0.5-0.2,0.8-0.6,1C7.4,14.7,7.6,14.4,8,14.2z"/>
	<path class="st240" d="M4,23.8c0-0.1,0-0.1,0-0.2c-0.2-0.9,0.1-1.6,1-2.1c0.5,0.1,0.6,0.4,0.6,0.8c0,0.8-0.6,1.3-1.1,1.9
		c-0.1,0.1-0.2,0.1-0.3,0.1C4,24.2,3.9,24,4,23.8z"/>
	<path class="st241" d="M5,21.6c-0.6,0.5-0.8,1.3-1,2c-0.2-0.2-0.4-0.4-0.4-0.7c0.3-0.7,0.6-1.4,0.8-2.1c0.1,0.1,0.3,0.3,0.4,0.4
		C5,21.3,5.1,21.4,5,21.6z"/>
	<path class="st242" d="M4,23.8c0.1,0.1,0.2,0.2,0.2,0.4c0.1,0.2,0.3,0.3,0.2,0.6c-0.5,0.1-0.5,0.8-1,0.8c-0.1-0.3,0.1-0.4,0.2-0.6
		C3.6,24.6,3.7,24.2,4,23.8z"/>
	<path class="st243" d="M3.6,25c-0.1,0.2-0.1,0.4-0.2,0.6c-0.1,0.1-0.1,0.3-0.2,0.4C2.7,25.4,3.3,25.3,3.6,25z"/>
	<path class="st244" d="M4.4,24.8c-0.1-0.2-0.1-0.4-0.2-0.6c0.1,0,0.1,0,0.2,0.1c0.4,0,0.6,0.2,0.7,0.5c0,0.1,0,0.2-0.1,0.3
		c-0.1,0-0.1,0-0.2,0C4.7,24.9,4.5,24.9,4.4,24.8z"/>
	<path class="st245" d="M13.6,9.6c0,0.3,0,0.5,0,0.8c-0.2,0.4,0.1,0.9-0.2,1.2C13,11.4,13.1,11,13,10.8c-0.1-0.3,0.2-0.7-0.1-1
		c0.1-0.4,0.2-0.8,0.6-1C13.4,9.1,13.1,9.4,13.6,9.6z"/>
	<path class="st246" d="M12.8,9.8c0.8,0.1,0.3,0.5,0.2,0.8c0.1,0.2,0.3,0.5-0.2,0.6l0,0c-0.3-0.2-0.7-0.3-0.4-0.8
		C12.4,10.1,12.5,9.9,12.8,9.8z"/>
	<path class="st247" d="M11,9.6c0.1,0.1,0.3,0.2,0.4,0.2c0.1,0.2,0.3,0.4,0.4,0.6c0.1,0.2,0.2,0.4,0.1,0.6c-0.3,0.3-0.5,0.1-0.7-0.2
		c-0.1-0.2-0.3-0.5-0.4-0.7c0-0.1,0-0.2,0-0.3C10.8,9.7,10.9,9.6,11,9.6z"/>
	<path class="st248" d="M11.8,11c0-0.2,0-0.4,0-0.6c0.2,0.1,0.4,0.1,0.6,0c0,0.3,0.3,0.5,0.4,0.8c-0.2,0.1-0.4,0.1-0.6,0.2
		c-0.2,0-0.3-0.1-0.4-0.2C11.8,11.2,11.8,11.1,11.8,11z"/>
	<path class="st249" d="M14.2,12.7c-0.1-0.1-0.3-0.2-0.4-0.3c-0.1,0-0.1-0.1,0-0.1c0,0,0,0,0.1,0c0.4-1.7,0.1-3.5,0.2-5.3
		c0.5,1.1,0.2,2.2,0.3,3.3C14.3,11.1,14.3,11.9,14.2,12.7z"/>
	<path class="st248" d="M13.8,12.3v0.1c-0.6-0.1-0.9-0.6-1-1.2c0.2-0.1,0.2-0.4,0.2-0.6c0.3,0.2,0.1,0.5,0.3,0.8
		c0.2-0.3-0.1-0.8,0.3-1c0,0.1,0,0.3,0,0.4C13.7,11.3,13.4,11.8,13.8,12.3z"/>
	<path class="st250" d="M9.8,8c0.5-0.3,0.7,0.1,1,0.4c0,0.3,0,0.5,0,0.8c-0.4,0.1-0.3-0.3-0.4-0.4C10.2,8.5,10,8.3,9.8,8z"/>
	<path class="st251" d="M10.4,8.8c0.1,0.1,0.3,0.3,0.4,0.4c0.1,0.1,0.1,0.3,0.2,0.4c-0.1,0.1-0.1,0.1-0.2,0.2
		c-0.2,0.1-0.2,0-0.3-0.1c-0.1-0.2-0.4-0.4-0.3-0.7C10.3,8.9,10.3,8.9,10.4,8.8z"/>
	<path class="st252" d="M10,9.6c-0.7,0.3-0.9,1-1.2,1.6c-0.2,0.6-0.5,1.1-1,1.6c0-0.1,0-0.3,0-0.4c0.3-1.1,0.8-2.1,1.4-3.1
		C9.3,9,9.5,8.7,9.8,9.2C10,9.3,10.1,9.4,10,9.6z"/>
	<path class="st253" d="M10,9.6C9.9,9.5,9.9,9.3,9.8,9.2C9.9,9.1,9.9,9.1,10,9c0.1,0,0.1,0,0.2,0c0.1,0.2,0.3,0.4,0.4,0.6
		c0,0.1-0.1,0.2-0.2,0.2C10.3,9.7,10.1,9.7,10,9.6z"/>
	<path class="st254" d="M14.4,19.2C14.2,19.1,14,19,13.8,19c-0.1-0.1-0.1-0.1-0.1-0.2c0.4-0.6,1.1-1.1,1.6-1.7
		c0.3-0.4,0.6-1,0.8-1.4c0.1-0.1,0.2-0.1,0.3,0c0.1,0.1,0.1,0.3,0.2,0.4c0.4,0.5,0.1,0.9-0.2,1.2C15.7,17.9,15.1,18.5,14.4,19.2z"/>
	<path class="st255" d="M14.4,19.2c0.2-0.9,1.1-1.3,1.6-1.9c0.3-0.4,0.7-0.7,0.6-1.3c0.8,0.4,0.4,0.9,0,1.2c-0.7,0.7-1.4,1.4-2,2.2
		C14.5,19.3,14.5,19.3,14.4,19.2z"/>
	<path class="st256" d="M16.4,15.6L16.4,15.6h-0.2c-0.4,0.1-0.5-0.3-0.7-0.5c-0.1-0.2-0.2-0.3-0.1-0.5c0.1-0.1,0.1-0.1,0.2-0.2
		c0.3,0.2,0.5,0.4,0.8,0.6c0.2,0.1,0.3,0.2,0.4,0.4C16.6,15.4,16.5,15.4,16.4,15.6z"/>
	<path class="st257" d="M19,22.4c-0.4-0.3-0.8-0.5-1.2-0.8c0.9-0.5,1.7-1.3,2.8-1.6c-0.1,0.2-0.2,0.4-0.4,0.6c0.4,0.2,0.7-0.4,1-0.1
		C20.6,21.3,19.5,21.5,19,22.4z"/>
	<path class="st258" d="M18.2,22.4c-0.7,0.5-1.3,1.1-2.2,1.2c-0.4-0.1-0.7-0.3-1-0.6c0-0.1,0.1-0.2,0.2-0.2c0.6-0.3,0.8-1.2,1.7-1
		C17.4,21.8,17.7,22.3,18.2,22.4z"/>
	<path class="st259" d="M15.6,20.8c0.1,0.1,0.3,0.2,0.4,0.2c-0.4,0.7-0.9,1.3-1.6,1.6c-0.1-0.1-0.2-0.2-0.4-0.2
		C14,21.4,14.9,21.1,15.6,20.8z"/>
	<path class="st260" d="M15.6,20.8c-0.5,0.6-1.3,0.8-1.6,1.6c-0.1,0-0.1,0-0.2,0c-0.2,0-0.3,0-0.3-0.3c0-0.1,0-0.1,0-0.2
		c0.5-0.6,0.9-1.2,1.8-1.5C15.4,20.6,15.5,20.7,15.6,20.8z"/>
	<path class="st261" d="M13.5,22.2c0.1,0.1,0.2,0.2,0.3,0.3c-0.7,0.3-1.1,0.8-1.6,1.3c-0.3,0.3-0.5,0.6-0.9,0.6
		C11.9,23.6,12.6,22.8,13.5,22.2z"/>
	<path class="st262" d="M15.2,23c-0.1,0-0.2,0-0.2,0c-0.1,0-0.1,0-0.2,0c-0.1-1.1,0.7-1.4,1.4-1.8c0.1,0.1,0.1,0.1,0.2,0.2
		C16.3,22.1,15.4,22.3,15.2,23z"/>
	<path class="st263" d="M16.2,21.2c-0.5,0.5-1.3,0.9-1.4,1.8c-0.2,0-0.3-0.2-0.4-0.4c0.5-0.6,1-1.2,1.6-1.6
		C16.1,21.1,16.1,21.1,16.2,21.2z"/>
	<path class="st264" d="M12.4,21.2c-0.1,0.3-0.3-0.1-0.4,0c-0.2-0.1-0.5-0.2-0.5-0.6c0.4-0.7,1-1.2,1.6-1.7c0.1,0,0.2,0,0.3,0.1
		s0.2,0.3,0.4,0.4C13.6,20.2,12.7,20.5,12.4,21.2z"/>
	<path class="st265" d="M13.4,21.8c-0.3,0-0.6-0.1-0.7-0.4c0.4-0.7,0.8-1.3,1.6-1.6c0.1,0.1,0.2,0.2,0.4,0.3c0,0.8-0.8,1-1,1.6
		C13.5,21.7,13.5,21.8,13.4,21.8z"/>
	<path class="st266" d="M13.4,21.8c0-0.1,0-0.1,0-0.2c0.4-0.5,0.9-1,1.4-1.4c0.1,0.1,0.3,0.2,0.4,0.3c-0.6,0.5-1,1.2-1.8,1.5
		C13.4,21.9,13.4,21.9,13.4,21.8z"/>
	<path class="st267" d="M14.2,19.8c-0.4,0.6-1,1.2-1.6,1.6c0,0-0.1-0.1-0.1-0.2c0-1,0.8-1.2,1.4-1.6C14.1,19.6,14.1,19.7,14.2,19.8z
		"/>
	<path class="st268" d="M15.2,23c0-0.9,0.9-1,1.2-1.6c0.2,0,0.4,0.2,0.4,0.4C16.1,21.9,15.9,22.8,15.2,23z"/>
	<path class="st269" d="M14,19.6c-0.5,0.5-1.2,0.8-1.4,1.6h-0.1h-0.1c0-1,0.9-1.2,1.4-1.8C13.9,19.5,13.9,19.5,14,19.6z"/>
	<path class="st270" d="M14.8,20.2c-0.4,0.5-0.9,1-1.4,1.4c0.1-0.8,0.9-1,1.2-1.6C14.7,20.1,14.7,20.1,14.8,20.2z"/>
	<path class="st271" d="M13.4,19c-0.1,0-0.2,0-0.2,0c-0.2,0.1-0.3,0-0.3-0.2s0-0.4,0.2-0.5s0.4,0,0.5,0.1s0.2,0.2,0.2,0.3
		c0,0.1,0,0.1,0,0.2C13.7,19,13.6,19,13.4,19z"/>
	<path class="st272" d="M8.6,24.6c-0.2-0.1-0.4-0.3-0.6-0.4c-0.2-0.1-0.3-0.2-0.3-0.4c0.1-0.5,0.4-0.9,0.8-1.2
		c0.8-0.8,1.5-1.6,2.1-2.5c0.2-0.1,0.4,0,0.5,0.1c0.3,0.3,0.5,0.7,0.8,1.1C10.8,22.4,9.8,23.6,8.6,24.6z"/>
	<path class="st273" d="M11.8,21.2c-0.4-0.2-0.7-0.5-0.8-0.9c0.4-0.3,0.6-0.1,0.6,0.3c0.1,0.2,0.2,0.4,0.4,0.6
		C11.9,21.2,11.9,21.2,11.8,21.2z"/>
	<path class="st274" d="M7.4,27c-0.1-0.1-0.3-0.1-0.4-0.2s-0.1-0.1-0.2-0.2c0.1-1,0.5-1.4,1.5-1.5c0.2,0,0.3,0.2,0.4,0.3
		C8.3,25.9,7.6,26.2,7.4,27z"/>
	<path class="st275" d="M7.8,24.4c0,0.1,0,0.2,0.1,0.4c-0.4,0.6-1.1,1-1,1.8c-0.1,0.1-0.2,0.1-0.3,0.1c-0.4-0.2-0.5-0.4-0.5-0.8
		c0.1-0.8,0.6-1.3,1.2-1.7C7.6,24.1,7.7,24.2,7.8,24.4z"/>
	<path class="st276" d="M6.8,26.6c-0.1-0.9,0.1-1.5,1-1.8C8,24.7,8.2,25,8.3,25.1C7.7,25.4,7,25.7,7,26.6
		C6.9,26.6,6.9,26.7,6.8,26.6C6.9,26.6,6.8,26.6,6.8,26.6z"/>
	<path class="st277" d="M7.8,24.4c-0.1-0.1-0.3-0.1-0.4-0.2c-0.2,0-0.4-0.2-0.6-0.3c-0.3-0.2-0.6-0.5-0.7-0.9c0-0.1,0-0.2,0.1-0.3
		c0.1-0.1,0.1-0.1,0.2-0.1c0.2,0,0.3,0.1,0.5,0.2C7,23,7.2,23.2,7.3,23.3c0.2,0.2,0.4,0.3,0.5,0.5s0.1,0.3,0.2,0.4
		C7.9,24.3,7.9,24.3,7.8,24.4z"/>
	<path class="st278" d="M5,25c0-0.1,0-0.1,0-0.2c0.1-0.6,0.5-1.1,1-1.5c0.4,0.1,0.6,0.3,0.7,0.7c-0.1,0.6-0.5,0.9-0.9,1.3
		c-0.2,0-0.3,0-0.4-0.1C5.3,25.1,5.1,25.1,5,25z"/>
	<path class="st279" d="M5.4,25.2c0.1,0,0.3,0,0.4,0c0.1,0.1,0.1,0.3,0,0.4c-0.1,0-0.1,0-0.2,0s-0.2-0.1-0.2-0.2
		C5.4,25.3,5.4,25.3,5.4,25.2z"/>
	<path class="st280" d="M5.4,25.4c0.1,0.1,0.1,0.1,0.2,0.2c-0.1,0-0.2,0-0.2,0C5.4,25.5,5.4,25.4,5.4,25.4z"/>
	<path class="st281" d="M6.2,25.8c0,0.4,0.3,0.5,0.4,0.8c-0.7,1-1.3,2-2.6,2.4c-0.1-0.1-0.1-0.1-0.2-0.2c0.5-0.6,1.1-1.1,1.6-1.7
		c0.3-0.4,0.5-0.8,0.6-1.3C6.1,25.8,6.1,25.7,6.2,25.8z"/>
	<path class="st282" d="M6.2,25.8C6.2,25.8,6.1,25.8,6.2,25.8c-0.1,0-0.2,0-0.2,0c-0.1-0.1-0.1-0.2-0.2-0.2c0-0.1,0-0.3,0-0.4
		c0.3-0.4,0.5-0.8,0.8-1.2c0.1-0.2,0.3-0.1,0.4-0.1c0.2,0,0.3,0.2,0.4,0.4C7,24.7,6.6,25.3,6.2,25.8z"/>
	<path class="st283" d="M4,29c0.9-0.8,1.7-1.6,2.6-2.4c0.1,0,0.1,0,0.2,0v0.1c0.2,0.1,0.1,0.3,0,0.4c-0.7,0.7-1.4,1.5-2.1,2.1
		c-0.1,0.1-0.3,0.1-0.4,0C4.1,29.1,4.1,29.1,4,29z"/>
	<path class="st284" d="M4.2,29.2c1.1-0.6,1.9-1.5,2.6-2.6c0.1,0,0.1,0,0.2,0c0,0.1,0,0.1,0,0.2c-0.5,1.1-1.6,1.8-2.4,2.6
		c-0.1,0-0.2,0-0.4,0C4.2,29.3,4.2,29.3,4.2,29.2z"/>
	<path class="st285" d="M13.8,13.2c0.4,0.3,0.7,0.6,1,1c0.7,1.1,0.7,1.1-0.1,2.1c-0.5,0.6-1,1.3-1.4,2c-0.4,0-0.8-0.1-0.9-0.5
		c0-0.1,0-0.2,0-0.3c0.4-0.8,1-1.4,1.5-2.1c0.2-0.4,0.6-0.7,0.2-1.2c-0.1-0.2-0.3-0.3-0.4-0.6C13.7,13.4,13.7,13.3,13.8,13.2z"/>
	<path class="st286" d="M13.2,18.2c0-0.8,0.7-1.3,1.2-1.8c0.7-0.7,0.9-1.3,0.4-2.2c0.2,0.1,0.4,0.3,0.6,0.4c0.1,0.1,0.1,0.3,0.2,0.4
		c0.5,0.6,0.4,1.1-0.1,1.6c-0.6,0.7-1,1.6-1.9,2c-0.1-0.1-0.3-0.1-0.4-0.2C13.1,18.4,13.1,18.3,13.2,18.2
		C13.1,18.2,13.2,18.2,13.2,18.2z"/>
	<path class="st287" d="M11.8,11.2c0.2,0,0.3,0,0.4,0.2c0.2,0.3,0.4,0.5,0.6,0.8c0.1,0,0.1,0.1,0.1,0.1c0,0.1,0,0.1,0,0.1
		c-0.1,0.1-0.2,0.1-0.3,0.1c-0.5-0.1-0.7-0.4-0.8-0.8c0-0.1-0.1-0.3,0-0.4C11.7,11.3,11.8,11.2,11.8,11.2z"/>
	<path class="st288" d="M12.8,12.4c0-0.1,0-0.1,0-0.2c0.4,0.3,0.7,0.6,1,1c0,0.1,0,0.3,0,0.4h-0.1c-0.4-0.1-0.6-0.5-0.9-0.8
		C12.7,12.7,12.6,12.6,12.8,12.4z"/>
	<path class="st289" d="M7.5,16.6C7.7,16.8,7.9,17,8,17.2c0.6,0.7-0.3,1-0.5,1.5c-0.3,0.3-0.7,0.6-0.8,1.1c-0.4,0.8-0.1,1.8-0.6,2.6
		c-0.1,0.1-0.2,0.1-0.3,0.1C5.6,22,5,21.6,5.2,21C6.4,19.8,6.9,18.1,7.5,16.6z"/>
	<path class="st290" d="M5.2,21c0,0.5,0.7,0.8,0.6,1.4c-0.1,0.1-0.3,0.1-0.4,0c0-0.3-0.2-0.6-0.4-0.8c-0.1-0.1-0.1-0.3-0.2-0.4
		c0-0.1,0-0.3,0-0.4C4.9,20.9,5.1,20.9,5.2,21z"/>
	<path class="st291" d="M8.3,17.4C8.9,17,9.2,16.5,9.6,16c0.2-0.1,0.3,0,0.5,0c0.2,0.1,0.4,0.2,0.6,0.3c0.1,0.1,0.2,0.2,0.2,0.3
		c-0.3,0.8-0.9,1.3-1.3,2C9,18.7,8.7,18.4,8.4,18C8.4,17.8,8.3,17.6,8.3,17.4z"/>
	<path class="st292" d="M8.3,17.4c0.1,0.1,0.1,0.3,0.2,0.4c0,0.2,0,0.3,0.2,0.4c0.3,0.3,0.8,0.5,0.5,1c-0.3,0.6-0.6,1.2-1.4,1.2
		c-0.1,0-0.1-0.1-0.2-0.2c-0.1-0.3-0.4-0.5-0.4-0.8s0.1-0.6,0.1-0.9c0.1-0.5,0.9-0.7,0.6-1.4C8.1,17.3,8.2,17.3,8.3,17.4z"/>
	<path class="st293" d="M10.6,16.4c-0.2,0.1-0.4-0.1-0.6-0.2c-0.2-0.3-0.7-0.5-0.7-1c-0.1-0.1-0.2-0.3-0.4-0.4
		C9,14.7,9,14.6,9.1,14.4c0.1-0.1,0.1-0.1,0.2-0.1c0.3,0.2,0.4,0.5,0.7,0.8c0.2,0.2,0.5,0.4,0.6,0.7C10.8,16,10.8,16.2,10.6,16.4z"
		/>
	<path class="st294" d="M9.4,15.2c0.3,0.3,0.6,0.5,0.7,1c-0.2-0.1-0.3-0.1-0.5-0.2C9.6,15.7,9,15.6,9.4,15.2z"/>
	<path class="st295" d="M10.4,9.8c0.1-0.1,0.1-0.1,0.2-0.2c0.1,0.1,0.1,0.1,0.2,0.2c0,0.1,0,0.1,0,0.2c0,0.2,0,0.4-0.1,0.6
		c-0.3,0.9-0.8,1.7-1.2,2.5c-0.1,0.3-0.3,0.6-0.8,0.7c-0.1-0.2-0.3-0.4-0.4-0.6C9.1,12.1,9.7,10.9,10.4,9.8z"/>
	<path class="st296" d="M8.8,13.8c0.8-1,1.2-2.3,1.8-3.4c0.3,0,0.3,0.2,0.4,0.4c0.1,0.5,0.1,1,0,1.5c-0.4,0.8-0.8,1.6-1.6,2.2
		c-0.1,0-0.1,0-0.2,0C9.1,14.2,8.9,14,8.8,13.8z"/>
	<path class="st297" d="M5.4,22.4c0.1,0,0.3,0,0.4,0s0.1,0,0.2,0c0.2,0,0.3,0.1,0.2,0.3c0,0.1,0,0.2,0,0.2c0,0.1,0,0.3-0.1,0.4
		c-0.2,0.5-0.6,0.9-1,1.4c-0.2-0.2-0.4-0.4-0.6-0.6C4.5,23.5,5.4,23.2,5.4,22.4z"/>
	<path class="st298" d="M10.8,12.4c0-0.5,0-1.1,0-1.6c0.3,0.2,0.3-0.1,0.4-0.2c0.2,0.1,0.3,0.4,0.6,0.4c0,0.1,0,0.1,0,0.2l0,0
		C11.6,11.7,11.9,12.7,10.8,12.4z"/>
	<path class="st299" d="M11.2,10.6c0,0.3-0.2,0.3-0.4,0.2c0-0.2,0-0.3-0.2-0.4c0-0.2,0-0.3,0.2-0.4C11.1,10.1,11.2,10.3,11.2,10.6z"
		/>
	<path class="st300" d="M13.6,18.6c0.6-0.8,1.3-1.7,1.9-2.4c0.4-0.4,0.1-0.8,0.1-1.2c0.2,0.2,0.4,0.4,0.6,0.6
		c0.1,1.2-0.9,1.7-1.5,2.5c-0.2,0.3-0.6,0.4-0.9,0.7C13.7,18.7,13.7,18.7,13.6,18.6z"/>
	<path class="st301" d="M11.7,20.6c-0.2-0.2-0.3-0.4-0.6-0.3c-0.1-0.1-0.3-0.2-0.4-0.3c-0.2-0.1-0.3-0.2-0.3-0.4
		c0.4-0.7,0.9-1.4,1.7-1.6c0.5,0,0.8,0.4,1,0.9c0.1,0.1,0.1,0.1,0.2,0.2C12.8,19.6,12.2,20.1,11.7,20.6z"/>
	<path class="st302" d="M13,18.8c-0.3-0.3-0.7-0.5-1-0.8c-0.1-0.1-0.1-0.1-0.1-0.2s0.1-0.2,0.3-0.2c0.1,0,0.2,0,0.2,0.1
		c0.2,0.3,0.5,0.4,0.8,0.6c0,0.1,0,0.1,0,0.2C13,18.5,13,18.6,13,18.8z"/>
	<path class="st303" d="M10.4,19.6c0.1,0.1,0.1,0.2,0.2,0.3c-0.2,1.1-1.1,1.6-1.7,2.4c-0.4,0.5-0.9,0.8-1.1,1.4
		c-0.3,0-0.5-0.2-0.6-0.4c0.9-1.4,1.9-2.6,2.9-3.8C10.2,19.5,10.3,19.5,10.4,19.6z"/>
	<path class="st304" d="M10.2,19.6c-0.8,1.4-1.8,2.7-3,3.8c-0.1-0.1-0.3-0.3-0.4-0.4c0-0.3,0.3-0.5,0.5-0.8c0.2-0.2,0.4-0.6,0.6-0.8
		C8,21.3,8.1,21.1,8.3,21c0.8-0.5,0.8-1.5,1.6-2C10.1,19.1,10.2,19.3,10.2,19.6z"/>
	<path class="st305" d="M6.2,22.8C6.1,22.7,6,22.5,6,22.4c0.3-0.9-0.1-2,0.6-2.8c0,0,0.1,0,0.1,0.1C7,19.9,7,19.3,7.3,19.4h0.1
		c0.1,0.3,0.3,0.5,0.4,0.8c-0.1,0.2-0.3,0.2-0.5,0.3C7.2,20.7,7,20.8,6.9,21c-0.2,0.2-0.3,0.5-0.4,0.8c0,0.2,0.1,0.4,0.1,0.6
		S6.5,22.7,6.2,22.8C6.3,22.8,6.3,22.8,6.2,22.8z"/>
	<path class="st306" d="M6.4,22.8c0-0.2,0-0.3,0.2-0.4c0.1-0.3,0.3-0.7,0.8-0.6c0.3,0.1,0.2,0.4,0,0.6C7.2,22.6,7,22.8,6.8,23
		C6.7,22.9,6.5,22.9,6.4,22.8z"/>
	<path class="st307" d="M6,23.4c0-0.1,0.1-0.3,0.1-0.4c0.3,0.3,0.6,0.6,0.8,0.8c-0.1,0-0.3,0.1-0.4,0.1C6.5,23.7,6.3,23.5,6,23.4z"
		/>
	<path class="st288" d="M12.4,17.6c-0.1,0-0.1,0-0.2,0c-0.4-0.2-0.7-0.4-0.7-0.8c0.7-1.1,1.5-2.2,2.3-3.2l0,0
		c0.2,0.1,0.3,0.2,0.4,0.4c0,0.7-0.3,1.2-0.7,1.8C13,16.3,12.6,16.9,12.4,17.6L12.4,17.6z"/>
	<path class="st308" d="M12.4,17.6c-0.2-0.6,0.2-1.1,0.5-1.5c0.5-0.6,0.9-1.4,1.3-2.1c0.5,0.2,0.5,0.6,0.2,1
		C13.8,15.9,13.1,16.8,12.4,17.6z"/>
	<path class="st309" d="M10.6,15.8c-0.3-0.1-0.5-0.3-0.6-0.6c0-0.4,0.2-0.7,0.4-1c0.7-0.7,1-1.7,1.4-2.6c0.3,0.2,0.4,0.7,0.8,0.8
		c0.1,0.2,0.2,0.5,0.1,0.6C12.2,14.1,11.8,15.2,10.6,15.8z"/>
	<path class="st310" d="M11.8,11.6c0,1.5-1.1,2.5-1.8,3.6c-0.3-0.2-0.6-0.4-0.6-0.8c0.5-0.7,0.9-1.3,1.4-2c0.8,0,0.7-0.8,1-1.2
		C11.8,11.3,11.8,11.5,11.8,11.6z"/>
	<path class="st311" d="M10.6,15.8c0.6-0.8,1.2-1.5,1.7-2.4c0.2-0.3,0.3-0.7,0.3-1c0.1,0,0.1,0,0.2,0c0,0.2,0,0.3,0.2,0.4
		c0.2,0.3,0.3,0.7,0.2,1c-0.6,1-1.1,2.1-2.1,2.9c-0.1,0-0.2,0-0.3-0.1s-0.1-0.1-0.2-0.2C10.6,16.2,10.6,16,10.6,15.8z"/>
	<path class="st287" d="M11,16.6c0.7-1.2,2.1-2.1,2-3.8c0.3,0.3,0.5,0.5,0.8,0.8c-0.5,1.2-1.3,2.3-2.2,3.2C11.4,17,11.2,17,11,16.9
		C10.9,16.8,10.9,16.7,11,16.6z"/>
	<path class="st305" d="M7.4,18.6c0.3,0.3,0.3,0.5,0,0.8l0,0c-0.3-0.2-0.5,0.4-0.8,0.2l0,0C6.6,19.1,7,18.8,7.4,18.6z"/>
	<path class="st312" d="M11,16.6c0,0.1,0,0.1,0.1,0.2c0.3,0.3,0.8,0.5,0.9,1c0,0.1,0,0.1,0,0.2c-0.6,0.5-1.1,1.1-1.6,1.7
		c-0.1,0-0.1,0-0.2,0c-0.1-0.1-0.3-0.3-0.4-0.4c-0.2-0.1-0.3-0.3-0.2-0.6c0.1-0.9,0.8-1.4,1.2-2.1C10.9,16.6,10.9,16.6,11,16.6z"/>
	<path class="st287" d="M9.6,18.6c0.1,0.2,0.2,0.4,0.2,0.6c-0.6,0.6-0.6,1.8-1.6,2c-0.5-0.1-0.7-0.3-0.4-0.8
		c0.7-0.1,0.9-0.7,1.3-1.2c0.3-0.4,0-0.6-0.3-0.7c-0.5-0.2-0.4-0.4-0.2-0.7C8.8,18.2,9.2,18.4,9.6,18.6z"/>
	<path class="st313" d="M7.8,20.4C7.7,20.8,8,21,8.2,21.2c0,0.2,0,0.3-0.2,0.4c-0.2-0.2-0.6,0.1-0.8-0.2c0-0.1-0.1-0.2-0.1-0.2
		c0-0.3,0.1-0.5,0.1-0.7c0.1-0.2,0.4-0.2,0.6-0.2C7.8,20.3,7.8,20.3,7.8,20.4z"/>
	<path class="st314" d="M12,17.8c-0.3-0.4-0.8-0.5-1-1c0.2,0,0.4,0,0.5,0c0.2,0.3,0.4,0.5,0.6,0.8C12.1,17.7,12.1,17.7,12,17.8z"/>
	<path class="st315" d="M7.2,21.2C7.3,21.6,8,20.9,8,21.6c-0.2,0.3-0.4,0.5-0.6,0.8c-0.3-1.2-0.5,0.2-0.8,0c0-0.2-0.6-0.2-0.2-0.6
		C6.7,21.6,6.7,21.1,7.2,21.2z"/>
	<path class="st316" d="M6.6,19.6c0.3,0.1,0.4-0.8,0.8-0.2C7.2,19.7,7,20,6.8,20.3C6.5,20.1,6.6,19.8,6.6,19.6z"/>
	<path class="st317" d="M7.2,21.2c-0.3,0.2-0.4,0.6-0.8,0.6c-0.1-0.4,0.2-0.7,0.4-1C7.2,20.6,7.4,20.8,7.2,21.2L7.2,21.2z"/>
	<path class="st318" d="M7.2,21.2c0-0.3-0.1-0.4-0.4-0.4c0.1-0.2,0.2-0.3,0.4-0.4C7.5,20.7,7.5,20.9,7.2,21.2z"/>
</g>
</svg>
